<svg xmlns="http://www.w3.org/2000/svg" width="171" height="33.961" viewBox="0 0 171 33.961">
  <g id="Group_1" data-name="Group 1" transform="translate(0 -0.275)">
    <path id="Path_452" data-name="Path 452" d="M0,34.236V9.458H2.531l.657,1.832A6.953,6.953,0,0,1,5.4,9.643a6.547,6.547,0,0,1,2.816-.588,6.773,6.773,0,0,1,3.077.711,7.584,7.584,0,0,1,2.444,1.955,9.2,9.2,0,0,1,1.613,2.926,11.341,11.341,0,0,1,0,7.179,9.44,9.44,0,0,1-1.613,2.926A7.562,7.562,0,0,1,11.3,26.708a6.7,6.7,0,0,1-3.077.711,6.493,6.493,0,0,1-2.859-.6,6.49,6.49,0,0,1-2.165-1.737v9.148H0ZM7.952,12.275a4.895,4.895,0,0,0-1.836.349,3.839,3.839,0,0,0-1.513,1.1,5.3,5.3,0,0,0-1.017,1.866,8.616,8.616,0,0,0-.366,2.653,9.355,9.355,0,0,0,.366,2.8A4.965,4.965,0,0,0,4.6,22.907a3.864,3.864,0,0,0,1.513,1.039,5.141,5.141,0,0,0,1.836.328,3.694,3.694,0,0,0,1.83-.479,4.79,4.79,0,0,0,1.5-1.3,6.43,6.43,0,0,0,1-1.921,7.676,7.676,0,0,0,0-4.684,6.156,6.156,0,0,0-1-1.9,4.764,4.764,0,0,0-1.5-1.265A3.96,3.96,0,0,0,7.952,12.275Z" fill="#ed2024"/>
    <path id="Path_453" data-name="Path 453" d="M26.268,27.433a7.525,7.525,0,0,1-3.238-.711,8.5,8.5,0,0,1-2.642-1.955,9.3,9.3,0,0,1-1.8-2.992,10.008,10.008,0,0,1-.62-3.524,10.386,10.386,0,0,1,.614-3.589,9.542,9.542,0,0,1,1.662-2.926,7.765,7.765,0,0,1,2.444-1.955,6.424,6.424,0,0,1,2.99-.711,7.162,7.162,0,0,1,3,.622,6.246,6.246,0,0,1,2.388,1.942,9.67,9.67,0,0,1,1.576,3.35,18.167,18.167,0,0,1,.564,4.848H21.387a6.335,6.335,0,0,0,1.91,3.207,4.972,4.972,0,0,0,1.526.93,4.859,4.859,0,0,0,1.774.328,5.635,5.635,0,0,0,4.181-1.867l1.991,2.195a8.6,8.6,0,0,1-2.841,2.051A8.836,8.836,0,0,1,26.268,27.433Zm-.6-15.158a3.285,3.285,0,0,0-1.445.328,4.561,4.561,0,0,0-1.259.916,5.69,5.69,0,0,0-1,1.395,6.742,6.742,0,0,0-.614,1.757h8.4a6.088,6.088,0,0,0-.366-1.682,4.5,4.5,0,0,0-.831-1.408,3.919,3.919,0,0,0-1.247-.95A3.638,3.638,0,0,0,25.666,12.275Z" fill="#ed2024"/>
    <path id="Path_454" data-name="Path 454" d="M43.568,26.113a6.842,6.842,0,0,1-2.982-.641,7.467,7.467,0,0,1-2.5-1.9,8.947,8.947,0,0,1-1.613-2.749,9.451,9.451,0,0,1-.583-3.309,9.186,9.186,0,0,1,.583-3.3,7.977,7.977,0,0,1,4.038-4.5,7.667,7.667,0,0,1,5.948-.109,6.476,6.476,0,0,1,2.159,1.573l.664-1.723H51.8v4.683c0,1.026.006,2.3.019,3.842s.019,3.405.019,5.6c0,.732-.025,1.443-.068,2.14a12.269,12.269,0,0,1-.285,2.01,8.851,8.851,0,0,1-.633,1.867,7.98,7.98,0,0,1-1.117,1.737A6.574,6.574,0,0,1,46.731,33.4a11.62,11.62,0,0,1-3.542.533,10.278,10.278,0,0,1-3.008-.431,10.389,10.389,0,0,1-2.543-1.155V28.417a4.691,4.691,0,0,0,2.078,1.723,7.523,7.523,0,0,0,3.207.656,6.9,6.9,0,0,0,2.227-.349,4.909,4.909,0,0,0,1.8-1.067,5.123,5.123,0,0,0,1.216-1.86,7.46,7.46,0,0,0,.447-2.721v-.7a5.476,5.476,0,0,1-.98.766,7.591,7.591,0,0,1-1.265.643,8.968,8.968,0,0,1-1.408.438A6.32,6.32,0,0,1,43.568,26.113Zm.279-13.838a4.415,4.415,0,0,0-2.616.864,5.123,5.123,0,0,0-1.745,2.315A5.722,5.722,0,0,0,39.12,17.5a5.825,5.825,0,0,0,.366,2.065A5.068,5.068,0,0,0,40.5,21.251a4.929,4.929,0,0,0,1.513,1.135,4.149,4.149,0,0,0,1.83.424,5.108,5.108,0,0,0,1.83-.328,3.991,3.991,0,0,0,1.5-.991,4.739,4.739,0,0,0,1-1.648,6.662,6.662,0,0,0,.366-2.345,7.208,7.208,0,0,0-.366-2.434,4.3,4.3,0,0,0-1-1.627,3.7,3.7,0,0,0-1.5-.9A6.4,6.4,0,0,0,43.847,12.274Z" fill="#ed2024"/>
    <path id="Path_455" data-name="Path 455" d="M58.608,27H56.053V.275h3.219v11.09a6.691,6.691,0,0,1,2.159-1.7,6.371,6.371,0,0,1,2.853-.6,6.766,6.766,0,0,1,3.07.711,7.563,7.563,0,0,1,2.438,1.955A9.315,9.315,0,0,1,71.4,14.654a11,11,0,0,1,.583,3.59,10.862,10.862,0,0,1-.583,3.589,9.193,9.193,0,0,1-1.613,2.926,7.6,7.6,0,0,1-2.438,1.955,6.678,6.678,0,0,1-3.07.711,6.416,6.416,0,0,1-2.8-.6,7.2,7.2,0,0,1-2.208-1.668Zm5.409-14.72a5.192,5.192,0,0,0-1.824.314,3.693,3.693,0,0,0-1.513,1.026,4.97,4.97,0,0,0-1.011,1.846,9.226,9.226,0,0,0-.366,2.783,8.815,8.815,0,0,0,.366,2.673A5.372,5.372,0,0,0,60.68,22.8a4.014,4.014,0,0,0,1.513,1.115,4.6,4.6,0,0,0,1.824.369,3.674,3.674,0,0,0,1.824-.479,4.77,4.77,0,0,0,1.495-1.3,6.573,6.573,0,0,0,1-1.921,7.674,7.674,0,0,0,0-4.683,6.155,6.155,0,0,0-1-1.9A4.656,4.656,0,0,0,65.84,12.74,3.79,3.79,0,0,0,64.017,12.275Z" fill="#ed2024"/>
    <path id="Path_456" data-name="Path 456" d="M107.913,9.457V26.988H105.19l-.5-2.01a5.332,5.332,0,0,1-2.127,1.832,5.969,5.969,0,0,1-2.624.622,6.98,6.98,0,0,1-3.108-.711,8.021,8.021,0,0,1-2.524-1.962,10.2,10.2,0,0,1,0-13.032,7.93,7.93,0,0,1,2.524-1.955,6.871,6.871,0,0,1,3.108-.711,5.922,5.922,0,0,1,4.745,2.345l.5-1.942h2.729Zm-7.97,14.823a3.67,3.67,0,0,0,1.823-.479,4.769,4.769,0,0,0,1.5-1.3,6.577,6.577,0,0,0,1-1.921,7.7,7.7,0,0,0,0-4.69,6.424,6.424,0,0,0-1-1.921,4.769,4.769,0,0,0-1.5-1.3,3.759,3.759,0,0,0-1.823-.479,3.655,3.655,0,0,0-1.824.479,4.769,4.769,0,0,0-1.495,1.3,6.576,6.576,0,0,0-1,1.921,7.414,7.414,0,0,0-.366,2.345,7.3,7.3,0,0,0,.366,2.345,6.427,6.427,0,0,0,1,1.921,4.769,4.769,0,0,0,1.495,1.3A3.689,3.689,0,0,0,99.943,24.281Z" fill="#ed2024"/>
    <path id="Path_457" data-name="Path 457" d="M120.33,12.5q-.2-.072-.465-.144a2.177,2.177,0,0,0-.565-.075,4.586,4.586,0,0,0-1.792.349,4.514,4.514,0,0,0-1.427.93,4.338,4.338,0,0,0-.942,1.374,4.01,4.01,0,0,0-.348,1.661l-.031,10.393h-3.219V9.458H114.1l.664,1.942A5.076,5.076,0,0,1,116.5,9.7a5.248,5.248,0,0,1,2.7-.643,10.535,10.535,0,0,1,2.426.328l-.831,3.33C120.64,12.644,120.485,12.569,120.33,12.5Z" fill="#ed2024"/>
    <path id="Path_458" data-name="Path 458" d="M138.957.275V27H136.4l-.663-1.832a7.292,7.292,0,0,1-2.19,1.668,6.306,6.306,0,0,1-2.822.6,6.658,6.658,0,0,1-3.058-.711,7.656,7.656,0,0,1-2.425-1.962,9.314,9.314,0,0,1-1.613-2.926,11,11,0,0,1-.583-3.589,10.841,10.841,0,0,1,.583-3.59,9.2,9.2,0,0,1,1.613-2.926,7.562,7.562,0,0,1,2.425-1.955,6.577,6.577,0,0,1,3.058-.711,6.477,6.477,0,0,1,2.89.6,6.386,6.386,0,0,1,2.128,1.7V.275Zm-7.983,24.005a4.582,4.582,0,0,0,1.848-.369,4.139,4.139,0,0,0,1.5-1.114,5.391,5.391,0,0,0,1.018-1.887,8.856,8.856,0,0,0,.366-2.673,9.251,9.251,0,0,0-.366-2.783,4.881,4.881,0,0,0-1.018-1.846,3.687,3.687,0,0,0-1.5-1.025,5.391,5.391,0,0,0-1.848-.314,3.866,3.866,0,0,0-1.836.458,4.688,4.688,0,0,0-1.5,1.265,6.236,6.236,0,0,0-1,1.9,7.231,7.231,0,0,0-.365,2.345,7.461,7.461,0,0,0,.365,2.345,6.447,6.447,0,0,0,1,1.921,4.785,4.785,0,0,0,1.5,1.3A3.716,3.716,0,0,0,130.974,24.281Z" fill="#ed2024"/>
    <path id="Path_459" data-name="Path 459" d="M150.512,27.433a7.528,7.528,0,0,1-3.238-.711,8.5,8.5,0,0,1-2.642-1.955,9.326,9.326,0,0,1-1.8-2.992,10.021,10.021,0,0,1-.62-3.524,10.391,10.391,0,0,1,.614-3.589,9.551,9.551,0,0,1,1.662-2.926,7.825,7.825,0,0,1,2.438-1.955,6.424,6.424,0,0,1,2.99-.711,7.163,7.163,0,0,1,3,.622,6.206,6.206,0,0,1,2.388,1.942,9.674,9.674,0,0,1,1.575,3.35,18.16,18.16,0,0,1,.565,4.848H145.625a6.321,6.321,0,0,0,1.91,3.207,4.961,4.961,0,0,0,1.526.93,4.858,4.858,0,0,0,1.774.328,5.635,5.635,0,0,0,4.18-1.867l1.991,2.195a8.6,8.6,0,0,1-2.84,2.051A8.788,8.788,0,0,1,150.512,27.433Zm-.595-15.158a3.279,3.279,0,0,0-1.445.328,4.565,4.565,0,0,0-1.26.916,5.7,5.7,0,0,0-1,1.395,6.735,6.735,0,0,0-.614,1.757H154a6.082,6.082,0,0,0-.366-1.682,4.5,4.5,0,0,0-.831-1.408,3.917,3.917,0,0,0-1.247-.95A3.657,3.657,0,0,0,149.917,12.275Z" fill="#ed2024"/>
    <path id="Path_460" data-name="Path 460" d="M169.7,12.5q-.2-.072-.466-.144a2.17,2.17,0,0,0-.564-.075,4.566,4.566,0,0,0-1.793.349,4.5,4.5,0,0,0-1.426.93,4.439,4.439,0,0,0-.949,1.374,4.113,4.113,0,0,0-.348,1.661l-.031,10.393h-3.219V9.458h2.556l.663,1.942a5.076,5.076,0,0,1,1.743-1.7,5.249,5.249,0,0,1,2.705-.643A10.534,10.534,0,0,1,171,9.382l-.831,3.33C170.014,12.644,169.859,12.569,169.7,12.5Z" fill="#ed2024"/>
    <path id="Path_461" data-name="Path 461" d="M83.326,18.243a1.461,1.461,0,0,1-.208.756,1.269,1.269,0,0,1-.554.5,1.129,1.129,0,0,1-.713.077,1.2,1.2,0,0,1-.632-.372,1.41,1.41,0,0,1-.338-.7,1.491,1.491,0,0,1,.07-.786,1.341,1.341,0,0,1,.455-.611,1.155,1.155,0,0,1,.686-.229,1.136,1.136,0,0,1,.473.1,1.233,1.233,0,0,1,.4.295,1.378,1.378,0,0,1,.268.442A1.481,1.481,0,0,1,83.326,18.243Z" fill="#ed2024"/>
    <path id="Path_462" data-name="Path 462" d="M83.326,10.422a1.461,1.461,0,0,1-.208.756,1.269,1.269,0,0,1-.554.5,1.129,1.129,0,0,1-.713.077,1.2,1.2,0,0,1-.632-.372,1.41,1.41,0,0,1-.338-.7,1.491,1.491,0,0,1,.07-.786,1.341,1.341,0,0,1,.455-.611,1.154,1.154,0,0,1,.686-.229,1.135,1.135,0,0,1,.473.1,1.233,1.233,0,0,1,.4.295,1.377,1.377,0,0,1,.268.442A1.481,1.481,0,0,1,83.326,10.422Z" fill="#ed2024"/>
    <path id="Path_463" data-name="Path 463" d="M83.326,14.333a1.461,1.461,0,0,1-.208.756,1.269,1.269,0,0,1-.554.5,1.128,1.128,0,0,1-.713.077,1.2,1.2,0,0,1-.632-.372,1.409,1.409,0,0,1-.338-.7,1.491,1.491,0,0,1,.07-.786,1.341,1.341,0,0,1,.455-.611,1.154,1.154,0,0,1,.686-.229,1.135,1.135,0,0,1,.473.1,1.233,1.233,0,0,1,.4.3,1.377,1.377,0,0,1,.268.441A1.481,1.481,0,0,1,83.326,14.333Z" fill="#ed2024"/>
    <path id="Path_464" data-name="Path 464" d="M83.326,22.154a1.461,1.461,0,0,1-.208.756,1.269,1.269,0,0,1-.554.5,1.128,1.128,0,0,1-.713.077,1.2,1.2,0,0,1-.632-.372,1.409,1.409,0,0,1-.338-.7,1.491,1.491,0,0,1,.07-.786,1.34,1.34,0,0,1,.455-.611,1.155,1.155,0,0,1,.686-.229,1.137,1.137,0,0,1,.473.1,1.234,1.234,0,0,1,.4.295,1.377,1.377,0,0,1,.268.442A1.481,1.481,0,0,1,83.326,22.154Z" fill="#ed2024"/>
    <path id="Path_465" data-name="Path 465" d="M83.326,26.066a1.461,1.461,0,0,1-.208.756,1.269,1.269,0,0,1-.554.5,1.128,1.128,0,0,1-.713.077,1.2,1.2,0,0,1-.632-.372,1.409,1.409,0,0,1-.338-.7,1.491,1.491,0,0,1,.07-.786,1.341,1.341,0,0,1,.455-.611,1.155,1.155,0,0,1,.686-.229,1.134,1.134,0,0,1,.473.1,1.231,1.231,0,0,1,.4.295,1.377,1.377,0,0,1,.268.442A1.481,1.481,0,0,1,83.326,26.066Z" fill="#ed2024"/>
    <path id="Path_466" data-name="Path 466" d="M79.914,18.243a1.461,1.461,0,0,1-.208.756,1.269,1.269,0,0,1-.554.5,1.129,1.129,0,0,1-.713.077,1.2,1.2,0,0,1-.632-.372,1.41,1.41,0,0,1-.338-.7,1.49,1.49,0,0,1,.07-.786,1.341,1.341,0,0,1,.455-.611,1.155,1.155,0,0,1,.686-.229,1.136,1.136,0,0,1,.472.1,1.233,1.233,0,0,1,.4.295,1.378,1.378,0,0,1,.268.442A1.481,1.481,0,0,1,79.914,18.243Z" fill="#ed2024"/>
    <path id="Path_467" data-name="Path 467" d="M79.914,10.422a1.461,1.461,0,0,1-.208.756,1.269,1.269,0,0,1-.554.5,1.129,1.129,0,0,1-.713.077,1.2,1.2,0,0,1-.632-.372,1.41,1.41,0,0,1-.338-.7,1.49,1.49,0,0,1,.07-.786,1.341,1.341,0,0,1,.455-.611,1.154,1.154,0,0,1,.686-.229,1.135,1.135,0,0,1,.472.1,1.232,1.232,0,0,1,.4.295,1.377,1.377,0,0,1,.268.442A1.481,1.481,0,0,1,79.914,10.422Z" fill="#ed2024"/>
    <path id="Path_468" data-name="Path 468" d="M79.914,14.333a1.461,1.461,0,0,1-.208.756,1.269,1.269,0,0,1-.554.5,1.128,1.128,0,0,1-.713.077,1.2,1.2,0,0,1-.632-.372,1.409,1.409,0,0,1-.338-.7,1.49,1.49,0,0,1,.07-.786,1.341,1.341,0,0,1,.455-.611,1.154,1.154,0,0,1,.686-.229,1.136,1.136,0,0,1,.472.1,1.233,1.233,0,0,1,.4.3,1.377,1.377,0,0,1,.268.441A1.481,1.481,0,0,1,79.914,14.333Z" fill="#ed2024"/>
    <path id="Path_469" data-name="Path 469" d="M79.914,22.154a1.461,1.461,0,0,1-.208.756,1.269,1.269,0,0,1-.554.5,1.128,1.128,0,0,1-.713.077,1.2,1.2,0,0,1-.632-.372,1.409,1.409,0,0,1-.338-.7,1.49,1.49,0,0,1,.07-.786,1.34,1.34,0,0,1,.455-.611,1.155,1.155,0,0,1,.686-.229,1.137,1.137,0,0,1,.472.1,1.234,1.234,0,0,1,.4.295,1.377,1.377,0,0,1,.268.442A1.481,1.481,0,0,1,79.914,22.154Z" fill="#ed2024"/>
    <path id="Path_470" data-name="Path 470" d="M79.914,26.066a1.461,1.461,0,0,1-.208.756,1.269,1.269,0,0,1-.554.5,1.128,1.128,0,0,1-.713.077,1.2,1.2,0,0,1-.632-.372,1.409,1.409,0,0,1-.338-.7,1.49,1.49,0,0,1,.07-.786,1.341,1.341,0,0,1,.455-.611,1.155,1.155,0,0,1,.686-.229,1.134,1.134,0,0,1,.472.1,1.231,1.231,0,0,1,.4.295,1.377,1.377,0,0,1,.268.442A1.481,1.481,0,0,1,79.914,26.066Z" fill="#ed2024"/>
    <path id="Path_471" data-name="Path 471" d="M76.6,18.243a1.462,1.462,0,0,1-.208.756,1.269,1.269,0,0,1-.554.5,1.129,1.129,0,0,1-.713.077,1.2,1.2,0,0,1-.632-.372,1.409,1.409,0,0,1-.338-.7,1.49,1.49,0,0,1,.07-.786,1.341,1.341,0,0,1,.455-.611,1.155,1.155,0,0,1,.686-.229,1.135,1.135,0,0,1,.472.1,1.233,1.233,0,0,1,.4.295,1.376,1.376,0,0,1,.268.442A1.481,1.481,0,0,1,76.6,18.243Z" fill="#ed2024"/>
    <path id="Path_472" data-name="Path 472" d="M76.6,14.333a1.462,1.462,0,0,1-.208.756,1.269,1.269,0,0,1-.554.5,1.128,1.128,0,0,1-.713.077,1.2,1.2,0,0,1-.632-.372,1.408,1.408,0,0,1-.338-.7,1.49,1.49,0,0,1,.07-.786,1.341,1.341,0,0,1,.455-.611,1.154,1.154,0,0,1,.686-.229,1.135,1.135,0,0,1,.472.1,1.233,1.233,0,0,1,.4.3,1.375,1.375,0,0,1,.268.441A1.481,1.481,0,0,1,76.6,14.333Z" fill="#ed2024"/>
    <path id="Path_473" data-name="Path 473" d="M76.6,22.154a1.462,1.462,0,0,1-.208.756,1.269,1.269,0,0,1-.554.5,1.128,1.128,0,0,1-.713.077,1.2,1.2,0,0,1-.632-.372,1.408,1.408,0,0,1-.338-.7,1.49,1.49,0,0,1,.07-.786,1.34,1.34,0,0,1,.455-.611,1.155,1.155,0,0,1,.686-.229,1.137,1.137,0,0,1,.472.1,1.234,1.234,0,0,1,.4.295,1.376,1.376,0,0,1,.268.442A1.481,1.481,0,0,1,76.6,22.154Z" fill="#ed2024"/>
    <path id="Path_474" data-name="Path 474" d="M84.262,18.243A1.462,1.462,0,0,0,84.47,19a1.269,1.269,0,0,0,.554.5,1.129,1.129,0,0,0,.713.077,1.2,1.2,0,0,0,.632-.372,1.409,1.409,0,0,0,.338-.7,1.49,1.49,0,0,0-.07-.786,1.341,1.341,0,0,0-.455-.611,1.155,1.155,0,0,0-.686-.229,1.135,1.135,0,0,0-.472.1,1.233,1.233,0,0,0-.4.295,1.376,1.376,0,0,0-.268.442A1.481,1.481,0,0,0,84.262,18.243Z" fill="#ed2024"/>
    <path id="Path_475" data-name="Path 475" d="M84.262,10.422a1.462,1.462,0,0,0,.208.756,1.269,1.269,0,0,0,.554.5,1.129,1.129,0,0,0,.713.077,1.2,1.2,0,0,0,.632-.372,1.409,1.409,0,0,0,.338-.7,1.49,1.49,0,0,0-.07-.786,1.34,1.34,0,0,0-.455-.611,1.155,1.155,0,0,0-.686-.229,1.135,1.135,0,0,0-.472.1,1.233,1.233,0,0,0-.4.295,1.376,1.376,0,0,0-.268.442A1.481,1.481,0,0,0,84.262,10.422Z" fill="#ed2024"/>
    <path id="Path_476" data-name="Path 476" d="M84.262,14.333a1.462,1.462,0,0,0,.208.756,1.269,1.269,0,0,0,.554.5,1.128,1.128,0,0,0,.713.077,1.2,1.2,0,0,0,.632-.372,1.408,1.408,0,0,0,.338-.7,1.49,1.49,0,0,0-.07-.786,1.341,1.341,0,0,0-.455-.611,1.154,1.154,0,0,0-.686-.229,1.135,1.135,0,0,0-.472.1,1.233,1.233,0,0,0-.4.3,1.375,1.375,0,0,0-.268.441A1.481,1.481,0,0,0,84.262,14.333Z" fill="#ed2024"/>
    <path id="Path_477" data-name="Path 477" d="M84.262,22.154a1.462,1.462,0,0,0,.208.756,1.269,1.269,0,0,0,.554.5,1.128,1.128,0,0,0,.713.077,1.2,1.2,0,0,0,.632-.372,1.408,1.408,0,0,0,.338-.7,1.49,1.49,0,0,0-.07-.786,1.34,1.34,0,0,0-.455-.611,1.155,1.155,0,0,0-.686-.229,1.137,1.137,0,0,0-.472.1,1.234,1.234,0,0,0-.4.295,1.376,1.376,0,0,0-.268.442A1.481,1.481,0,0,0,84.262,22.154Z" fill="#ed2024"/>
    <path id="Path_478" data-name="Path 478" d="M84.262,26.066a1.462,1.462,0,0,0,.208.756,1.269,1.269,0,0,0,.554.5,1.128,1.128,0,0,0,.713.077,1.2,1.2,0,0,0,.632-.372,1.409,1.409,0,0,0,.338-.7,1.49,1.49,0,0,0-.07-.786,1.341,1.341,0,0,0-.455-.611,1.155,1.155,0,0,0-.686-.229,1.134,1.134,0,0,0-.472.1,1.231,1.231,0,0,0-.4.295,1.375,1.375,0,0,0-.268.442A1.481,1.481,0,0,0,84.262,26.066Z" fill="#ed2024"/>
    <path id="Path_479" data-name="Path 479" d="M87.58,18.243a1.462,1.462,0,0,0,.208.756,1.268,1.268,0,0,0,.554.5,1.129,1.129,0,0,0,.713.077,1.2,1.2,0,0,0,.632-.372,1.409,1.409,0,0,0,.338-.7,1.491,1.491,0,0,0-.07-.786,1.341,1.341,0,0,0-.455-.611,1.155,1.155,0,0,0-.686-.229,1.135,1.135,0,0,0-.472.1,1.234,1.234,0,0,0-.4.295,1.378,1.378,0,0,0-.268.442A1.481,1.481,0,0,0,87.58,18.243Z" fill="#ed2024"/>
    <path id="Path_480" data-name="Path 480" d="M87.58,14.333a1.462,1.462,0,0,0,.208.756,1.269,1.269,0,0,0,.554.5,1.128,1.128,0,0,0,.713.077,1.2,1.2,0,0,0,.632-.372,1.408,1.408,0,0,0,.338-.7,1.491,1.491,0,0,0-.07-.786A1.341,1.341,0,0,0,89.5,13.2a1.155,1.155,0,0,0-.686-.229,1.135,1.135,0,0,0-.472.1,1.234,1.234,0,0,0-.4.3,1.377,1.377,0,0,0-.268.441A1.481,1.481,0,0,0,87.58,14.333Z" fill="#ed2024"/>
    <path id="Path_481" data-name="Path 481" d="M87.58,22.154a1.462,1.462,0,0,0,.208.756,1.269,1.269,0,0,0,.554.5,1.128,1.128,0,0,0,.713.077,1.2,1.2,0,0,0,.632-.372,1.408,1.408,0,0,0,.338-.7,1.491,1.491,0,0,0-.07-.786,1.34,1.34,0,0,0-.455-.611,1.155,1.155,0,0,0-.686-.229,1.137,1.137,0,0,0-.472.1,1.236,1.236,0,0,0-.4.295,1.377,1.377,0,0,0-.268.442A1.481,1.481,0,0,0,87.58,22.154Z" fill="#ed2024"/>
  </g>
</svg>