<svg xmlns="http://www.w3.org/2000/svg" xmlns:xlink="http://www.w3.org/1999/xlink" width="251" height="251" viewBox="0 0 251 251">
  <defs>
    <clipPath id="clip-path">
      <rect id="Rectangle_116" data-name="Rectangle 116" width="251" height="251" transform="translate(998 464)" fill="#fff"/>
    </clipPath>
  </defs>
  <g id="Group_13" data-name="Group 13" transform="translate(-998 -464)">
    <g id="Mask_Group_5" data-name="Mask Group 5" clip-path="url(#clip-path)">
      <g id="Group_100" data-name="Group 100" transform="translate(998.861 464)">
        <rect id="Rectangle_118" data-name="Rectangle 118" width="249.278" height="251" fill="#dac2a1"/>
        <path id="Path_451" data-name="Path 451" d="M173.3,87.149c14.891,14.7,25.942,36.43,20.791,52.819-5.151,16.3-26.41,27.159-46.826,35.119-20.322,7.866-39.708,12.924-57.6,7.211-17.888-5.807-34.183-22.2-35.775-39.147-1.5-16.857,11.8-34.276,25.379-48.7S106.9,68.512,123.287,66.639C139.583,64.766,158.406,72.351,173.3,87.149Z" fill="#f06"/>
        <circle id="Ellipse_624" data-name="Ellipse 624" cx="1.894" cy="1.894" r="1.894" transform="translate(3.443 3.443)" fill="#674f2f"/>
        <circle id="Ellipse_625" data-name="Ellipse 625" cx="1.894" cy="1.894" r="1.894" transform="translate(3.443 86.077)" fill="#674f2f"/>
        <circle id="Ellipse_626" data-name="Ellipse 626" cx="1.894" cy="1.894" r="1.894" transform="translate(3.443 168.711)" fill="#674f2f"/>
        <circle id="Ellipse_627" data-name="Ellipse 627" cx="1.894" cy="1.894" r="1.894" transform="translate(86.077 3.443)" fill="#674f2f"/>
        <circle id="Ellipse_628" data-name="Ellipse 628" cx="1.894" cy="1.894" r="1.894" transform="translate(86.077 86.077)" fill="#674f2f"/>
        <circle id="Ellipse_629" data-name="Ellipse 629" cx="1.894" cy="1.894" r="1.894" transform="translate(86.077 168.711)" fill="#674f2f"/>
        <circle id="Ellipse_630" data-name="Ellipse 630" cx="1.894" cy="1.894" r="1.894" transform="translate(13.772 3.443)" fill="#674f2f"/>
        <circle id="Ellipse_631" data-name="Ellipse 631" cx="1.894" cy="1.894" r="1.894" transform="translate(13.772 86.077)" fill="#674f2f"/>
        <circle id="Ellipse_632" data-name="Ellipse 632" cx="1.894" cy="1.894" r="1.894" transform="translate(13.772 168.711)" fill="#674f2f"/>
        <circle id="Ellipse_633" data-name="Ellipse 633" cx="1.894" cy="1.894" r="1.894" transform="translate(96.406 3.443)" fill="#674f2f"/>
        <circle id="Ellipse_634" data-name="Ellipse 634" cx="1.894" cy="1.894" r="1.894" transform="translate(96.406 86.077)" fill="#674f2f"/>
        <circle id="Ellipse_635" data-name="Ellipse 635" cx="1.894" cy="1.894" r="1.894" transform="translate(96.406 168.711)" fill="#674f2f"/>
        <circle id="Ellipse_636" data-name="Ellipse 636" cx="1.894" cy="1.894" r="1.894" transform="translate(3.443 13.772)" fill="#674f2f"/>
        <circle id="Ellipse_637" data-name="Ellipse 637" cx="1.894" cy="1.894" r="1.894" transform="translate(3.443 96.406)" fill="#674f2f"/>
        <circle id="Ellipse_638" data-name="Ellipse 638" cx="1.894" cy="1.894" r="1.894" transform="translate(3.443 179.04)" fill="#674f2f"/>
        <circle id="Ellipse_639" data-name="Ellipse 639" cx="1.894" cy="1.894" r="1.894" transform="translate(86.077 13.772)" fill="#674f2f"/>
        <circle id="Ellipse_640" data-name="Ellipse 640" cx="1.894" cy="1.894" r="1.894" transform="translate(86.077 96.406)" fill="#674f2f"/>
        <circle id="Ellipse_641" data-name="Ellipse 641" cx="1.894" cy="1.894" r="1.894" transform="translate(86.077 179.04)" fill="#674f2f"/>
        <circle id="Ellipse_642" data-name="Ellipse 642" cx="1.894" cy="1.894" r="1.894" transform="translate(13.772 13.772)" fill="#674f2f"/>
        <circle id="Ellipse_643" data-name="Ellipse 643" cx="1.894" cy="1.894" r="1.894" transform="translate(13.772 96.406)" fill="#674f2f"/>
        <circle id="Ellipse_644" data-name="Ellipse 644" cx="1.894" cy="1.894" r="1.894" transform="translate(13.772 179.04)" fill="#674f2f"/>
        <circle id="Ellipse_645" data-name="Ellipse 645" cx="1.894" cy="1.894" r="1.894" transform="translate(96.406 13.772)" fill="#674f2f"/>
        <circle id="Ellipse_646" data-name="Ellipse 646" cx="1.894" cy="1.894" r="1.894" transform="translate(96.406 96.406)" fill="#674f2f"/>
        <circle id="Ellipse_647" data-name="Ellipse 647" cx="1.894" cy="1.894" r="1.894" transform="translate(96.406 179.04)" fill="#674f2f"/>
        <circle id="Ellipse_648" data-name="Ellipse 648" cx="1.894" cy="1.894" r="1.894" transform="translate(24.101 3.443)" fill="#674f2f"/>
        <circle id="Ellipse_649" data-name="Ellipse 649" cx="1.894" cy="1.894" r="1.894" transform="translate(24.101 86.077)" fill="#674f2f"/>
        <circle id="Ellipse_650" data-name="Ellipse 650" cx="1.894" cy="1.894" r="1.894" transform="translate(24.101 168.711)" fill="#674f2f"/>
        <circle id="Ellipse_651" data-name="Ellipse 651" cx="1.894" cy="1.894" r="1.894" transform="translate(106.735 3.443)" fill="#674f2f"/>
        <circle id="Ellipse_652" data-name="Ellipse 652" cx="1.894" cy="1.894" r="1.894" transform="translate(106.735 86.077)" fill="#674f2f"/>
        <circle id="Ellipse_653" data-name="Ellipse 653" cx="1.894" cy="1.894" r="1.894" transform="translate(106.735 168.711)" fill="#674f2f"/>
        <circle id="Ellipse_654" data-name="Ellipse 654" cx="1.894" cy="1.894" r="1.894" transform="translate(34.431 3.443)" fill="#674f2f"/>
        <circle id="Ellipse_655" data-name="Ellipse 655" cx="1.894" cy="1.894" r="1.894" transform="translate(34.431 86.077)" fill="#674f2f"/>
        <circle id="Ellipse_656" data-name="Ellipse 656" cx="1.894" cy="1.894" r="1.894" transform="translate(34.431 168.711)" fill="#674f2f"/>
        <circle id="Ellipse_657" data-name="Ellipse 657" cx="1.894" cy="1.894" r="1.894" transform="translate(117.063 3.443)" fill="#674f2f"/>
        <circle id="Ellipse_658" data-name="Ellipse 658" cx="1.894" cy="1.894" r="1.894" transform="translate(117.063 86.077)" fill="#674f2f"/>
        <circle id="Ellipse_659" data-name="Ellipse 659" cx="1.894" cy="1.894" r="1.894" transform="translate(117.063 168.711)" fill="#674f2f"/>
        <circle id="Ellipse_660" data-name="Ellipse 660" cx="1.894" cy="1.894" r="1.894" transform="translate(24.101 13.772)" fill="#674f2f"/>
        <circle id="Ellipse_661" data-name="Ellipse 661" cx="1.894" cy="1.894" r="1.894" transform="translate(24.101 96.406)" fill="#674f2f"/>
        <circle id="Ellipse_662" data-name="Ellipse 662" cx="1.894" cy="1.894" r="1.894" transform="translate(24.101 179.04)" fill="#674f2f"/>
        <circle id="Ellipse_663" data-name="Ellipse 663" cx="1.894" cy="1.894" r="1.894" transform="translate(106.735 13.772)" fill="#674f2f"/>
        <circle id="Ellipse_664" data-name="Ellipse 664" cx="1.894" cy="1.894" r="1.894" transform="translate(106.735 96.406)" fill="#674f2f"/>
        <circle id="Ellipse_665" data-name="Ellipse 665" cx="1.894" cy="1.894" r="1.894" transform="translate(106.735 179.04)" fill="#674f2f"/>
        <circle id="Ellipse_666" data-name="Ellipse 666" cx="1.894" cy="1.894" r="1.894" transform="translate(34.431 13.772)" fill="#674f2f"/>
        <circle id="Ellipse_667" data-name="Ellipse 667" cx="1.894" cy="1.894" r="1.894" transform="translate(34.431 96.406)" fill="#674f2f"/>
        <circle id="Ellipse_668" data-name="Ellipse 668" cx="1.894" cy="1.894" r="1.894" transform="translate(34.431 179.04)" fill="#674f2f"/>
        <circle id="Ellipse_669" data-name="Ellipse 669" cx="1.894" cy="1.894" r="1.894" transform="translate(117.063 13.772)" fill="#674f2f"/>
        <circle id="Ellipse_670" data-name="Ellipse 670" cx="1.894" cy="1.894" r="1.894" transform="translate(117.063 96.406)" fill="#674f2f"/>
        <circle id="Ellipse_671" data-name="Ellipse 671" cx="1.894" cy="1.894" r="1.894" transform="translate(117.063 179.04)" fill="#674f2f"/>
        <circle id="Ellipse_672" data-name="Ellipse 672" cx="1.894" cy="1.894" r="1.894" transform="translate(3.443 24.102)" fill="#674f2f"/>
        <circle id="Ellipse_673" data-name="Ellipse 673" cx="1.894" cy="1.894" r="1.894" transform="translate(3.443 106.735)" fill="#674f2f"/>
        <circle id="Ellipse_674" data-name="Ellipse 674" cx="1.894" cy="1.894" r="1.894" transform="translate(3.443 189.369)" fill="#674f2f"/>
        <circle id="Ellipse_675" data-name="Ellipse 675" cx="1.894" cy="1.894" r="1.894" transform="translate(86.077 106.735)" fill="#674f2f"/>
        <circle id="Ellipse_676" data-name="Ellipse 676" cx="1.894" cy="1.894" r="1.894" transform="translate(86.077 189.369)" fill="#674f2f"/>
        <circle id="Ellipse_677" data-name="Ellipse 677" cx="1.894" cy="1.894" r="1.894" transform="translate(13.772 24.102)" fill="#674f2f"/>
        <circle id="Ellipse_678" data-name="Ellipse 678" cx="1.894" cy="1.894" r="1.894" transform="translate(13.772 106.735)" fill="#674f2f"/>
        <circle id="Ellipse_679" data-name="Ellipse 679" cx="1.894" cy="1.894" r="1.894" transform="translate(13.772 189.369)" fill="#674f2f"/>
        <circle id="Ellipse_680" data-name="Ellipse 680" cx="1.894" cy="1.894" r="1.894" transform="translate(96.406 106.735)" fill="#674f2f"/>
        <circle id="Ellipse_681" data-name="Ellipse 681" cx="1.894" cy="1.894" r="1.894" transform="translate(96.406 189.369)" fill="#674f2f"/>
        <circle id="Ellipse_682" data-name="Ellipse 682" cx="1.894" cy="1.894" r="1.894" transform="translate(3.443 34.431)" fill="#674f2f"/>
        <circle id="Ellipse_683" data-name="Ellipse 683" cx="1.894" cy="1.894" r="1.894" transform="translate(3.443 117.065)" fill="#674f2f"/>
        <circle id="Ellipse_684" data-name="Ellipse 684" cx="1.894" cy="1.894" r="1.894" transform="translate(3.443 199.698)" fill="#674f2f"/>
        <circle id="Ellipse_685" data-name="Ellipse 685" cx="1.894" cy="1.894" r="1.894" transform="translate(86.077 117.065)" fill="#674f2f"/>
        <circle id="Ellipse_686" data-name="Ellipse 686" cx="1.894" cy="1.894" r="1.894" transform="translate(86.077 199.698)" fill="#674f2f"/>
        <circle id="Ellipse_687" data-name="Ellipse 687" cx="1.894" cy="1.894" r="1.894" transform="translate(13.772 34.431)" fill="#674f2f"/>
        <circle id="Ellipse_688" data-name="Ellipse 688" cx="1.894" cy="1.894" r="1.894" transform="translate(13.772 117.065)" fill="#674f2f"/>
        <circle id="Ellipse_689" data-name="Ellipse 689" cx="1.894" cy="1.894" r="1.894" transform="translate(13.772 199.698)" fill="#674f2f"/>
        <circle id="Ellipse_690" data-name="Ellipse 690" cx="1.894" cy="1.894" r="1.894" transform="translate(96.406 117.065)" fill="#674f2f"/>
        <circle id="Ellipse_691" data-name="Ellipse 691" cx="1.894" cy="1.894" r="1.894" transform="translate(96.406 199.698)" fill="#674f2f"/>
        <circle id="Ellipse_692" data-name="Ellipse 692" cx="1.894" cy="1.894" r="1.894" transform="translate(24.101 24.102)" fill="#674f2f"/>
        <circle id="Ellipse_693" data-name="Ellipse 693" cx="1.894" cy="1.894" r="1.894" transform="translate(24.101 106.735)" fill="#674f2f"/>
        <circle id="Ellipse_694" data-name="Ellipse 694" cx="1.894" cy="1.894" r="1.894" transform="translate(24.101 189.369)" fill="#674f2f"/>
        <circle id="Ellipse_695" data-name="Ellipse 695" cx="1.894" cy="1.894" r="1.894" transform="translate(106.735 106.735)" fill="#674f2f"/>
        <circle id="Ellipse_696" data-name="Ellipse 696" cx="1.894" cy="1.894" r="1.894" transform="translate(106.735 189.369)" fill="#674f2f"/>
        <circle id="Ellipse_697" data-name="Ellipse 697" cx="1.894" cy="1.894" r="1.894" transform="translate(34.431 24.102)" fill="#674f2f"/>
        <circle id="Ellipse_698" data-name="Ellipse 698" cx="1.894" cy="1.894" r="1.894" transform="translate(34.431 106.735)" fill="#674f2f"/>
        <circle id="Ellipse_699" data-name="Ellipse 699" cx="1.894" cy="1.894" r="1.894" transform="translate(34.431 189.369)" fill="#674f2f"/>
        <circle id="Ellipse_700" data-name="Ellipse 700" cx="1.894" cy="1.894" r="1.894" transform="translate(117.063 106.735)" fill="#674f2f"/>
        <circle id="Ellipse_701" data-name="Ellipse 701" cx="1.894" cy="1.894" r="1.894" transform="translate(117.063 189.369)" fill="#674f2f"/>
        <circle id="Ellipse_702" data-name="Ellipse 702" cx="1.894" cy="1.894" r="1.894" transform="translate(24.101 34.431)" fill="#674f2f"/>
        <circle id="Ellipse_703" data-name="Ellipse 703" cx="1.894" cy="1.894" r="1.894" transform="translate(24.101 117.065)" fill="#674f2f"/>
        <circle id="Ellipse_704" data-name="Ellipse 704" cx="1.894" cy="1.894" r="1.894" transform="translate(24.101 199.698)" fill="#674f2f"/>
        <circle id="Ellipse_705" data-name="Ellipse 705" cx="1.894" cy="1.894" r="1.894" transform="translate(106.735 117.065)" fill="#674f2f"/>
        <circle id="Ellipse_706" data-name="Ellipse 706" cx="1.894" cy="1.894" r="1.894" transform="translate(106.735 199.698)" fill="#674f2f"/>
        <circle id="Ellipse_707" data-name="Ellipse 707" cx="1.894" cy="1.894" r="1.894" transform="translate(34.431 34.431)" fill="#674f2f"/>
        <circle id="Ellipse_708" data-name="Ellipse 708" cx="1.894" cy="1.894" r="1.894" transform="translate(34.431 117.065)" fill="#674f2f"/>
        <circle id="Ellipse_709" data-name="Ellipse 709" cx="1.894" cy="1.894" r="1.894" transform="translate(34.431 199.698)" fill="#674f2f"/>
        <circle id="Ellipse_710" data-name="Ellipse 710" cx="1.894" cy="1.894" r="1.894" transform="translate(117.063 117.065)" fill="#674f2f"/>
        <circle id="Ellipse_711" data-name="Ellipse 711" cx="1.894" cy="1.894" r="1.894" transform="translate(117.063 199.698)" fill="#674f2f"/>
        <circle id="Ellipse_712" data-name="Ellipse 712" cx="1.894" cy="1.894" r="1.894" transform="translate(44.76 3.443)" fill="#674f2f"/>
        <circle id="Ellipse_713" data-name="Ellipse 713" cx="1.894" cy="1.894" r="1.894" transform="translate(44.76 86.077)" fill="#674f2f"/>
        <circle id="Ellipse_714" data-name="Ellipse 714" cx="1.894" cy="1.894" r="1.894" transform="translate(44.76 168.711)" fill="#674f2f"/>
        <circle id="Ellipse_715" data-name="Ellipse 715" cx="1.894" cy="1.894" r="1.894" transform="translate(127.393 3.443)" fill="#674f2f"/>
        <circle id="Ellipse_716" data-name="Ellipse 716" cx="1.894" cy="1.894" r="1.894" transform="translate(127.393 86.077)" fill="#674f2f"/>
        <circle id="Ellipse_717" data-name="Ellipse 717" cx="1.894" cy="1.894" r="1.894" transform="translate(127.393 168.711)" fill="#674f2f"/>
        <circle id="Ellipse_718" data-name="Ellipse 718" cx="1.894" cy="1.894" r="1.894" transform="translate(55.089 3.443)" fill="#674f2f"/>
        <circle id="Ellipse_719" data-name="Ellipse 719" cx="1.894" cy="1.894" r="1.894" transform="translate(55.089 86.077)" fill="#674f2f"/>
        <circle id="Ellipse_720" data-name="Ellipse 720" cx="1.894" cy="1.894" r="1.894" transform="translate(55.089 168.711)" fill="#674f2f"/>
        <circle id="Ellipse_721" data-name="Ellipse 721" cx="1.894" cy="1.894" r="1.894" transform="translate(137.723 3.443)" fill="#674f2f"/>
        <circle id="Ellipse_722" data-name="Ellipse 722" cx="1.894" cy="1.894" r="1.894" transform="translate(137.723 86.077)" fill="#674f2f"/>
        <circle id="Ellipse_723" data-name="Ellipse 723" cx="1.894" cy="1.894" r="1.894" transform="translate(137.723 168.711)" fill="#674f2f"/>
        <circle id="Ellipse_724" data-name="Ellipse 724" cx="1.894" cy="1.894" r="1.894" transform="translate(44.76 13.772)" fill="#674f2f"/>
        <circle id="Ellipse_725" data-name="Ellipse 725" cx="1.894" cy="1.894" r="1.894" transform="translate(44.76 96.406)" fill="#674f2f"/>
        <circle id="Ellipse_726" data-name="Ellipse 726" cx="1.894" cy="1.894" r="1.894" transform="translate(44.76 179.04)" fill="#674f2f"/>
        <circle id="Ellipse_727" data-name="Ellipse 727" cx="1.894" cy="1.894" r="1.894" transform="translate(127.393 13.772)" fill="#674f2f"/>
        <circle id="Ellipse_728" data-name="Ellipse 728" cx="1.894" cy="1.894" r="1.894" transform="translate(127.393 96.406)" fill="#674f2f"/>
        <circle id="Ellipse_729" data-name="Ellipse 729" cx="1.894" cy="1.894" r="1.894" transform="translate(127.393 179.04)" fill="#674f2f"/>
        <circle id="Ellipse_730" data-name="Ellipse 730" cx="1.894" cy="1.894" r="1.894" transform="translate(55.089 13.772)" fill="#674f2f"/>
        <circle id="Ellipse_731" data-name="Ellipse 731" cx="1.894" cy="1.894" r="1.894" transform="translate(55.089 96.406)" fill="#674f2f"/>
        <circle id="Ellipse_732" data-name="Ellipse 732" cx="1.894" cy="1.894" r="1.894" transform="translate(55.089 179.04)" fill="#674f2f"/>
        <circle id="Ellipse_733" data-name="Ellipse 733" cx="1.894" cy="1.894" r="1.894" transform="translate(137.723 13.772)" fill="#674f2f"/>
        <circle id="Ellipse_734" data-name="Ellipse 734" cx="1.894" cy="1.894" r="1.894" transform="translate(137.723 96.406)" fill="#674f2f"/>
        <circle id="Ellipse_735" data-name="Ellipse 735" cx="1.894" cy="1.894" r="1.894" transform="translate(137.723 179.04)" fill="#674f2f"/>
        <circle id="Ellipse_736" data-name="Ellipse 736" cx="1.894" cy="1.894" r="1.894" transform="translate(65.418 3.443)" fill="#674f2f"/>
        <circle id="Ellipse_737" data-name="Ellipse 737" cx="1.894" cy="1.894" r="1.894" transform="translate(65.418 86.077)" fill="#674f2f"/>
        <circle id="Ellipse_738" data-name="Ellipse 738" cx="1.894" cy="1.894" r="1.894" transform="translate(65.418 168.711)" fill="#674f2f"/>
        <circle id="Ellipse_739" data-name="Ellipse 739" cx="1.894" cy="1.894" r="1.894" transform="translate(148.052 3.443)" fill="#674f2f"/>
        <circle id="Ellipse_740" data-name="Ellipse 740" cx="1.894" cy="1.894" r="1.894" transform="translate(148.052 86.077)" fill="#674f2f"/>
        <circle id="Ellipse_741" data-name="Ellipse 741" cx="1.894" cy="1.894" r="1.894" transform="translate(148.052 168.711)" fill="#674f2f"/>
        <circle id="Ellipse_742" data-name="Ellipse 742" cx="1.894" cy="1.894" r="1.894" transform="translate(75.746 3.443)" fill="#674f2f"/>
        <circle id="Ellipse_743" data-name="Ellipse 743" cx="1.894" cy="1.894" r="1.894" transform="translate(75.746 86.077)" fill="#674f2f"/>
        <circle id="Ellipse_744" data-name="Ellipse 744" cx="1.894" cy="1.894" r="1.894" transform="translate(75.746 168.711)" fill="#674f2f"/>
        <circle id="Ellipse_745" data-name="Ellipse 745" cx="1.894" cy="1.894" r="1.894" transform="translate(158.381 3.443)" fill="#674f2f"/>
        <circle id="Ellipse_746" data-name="Ellipse 746" cx="1.894" cy="1.894" r="1.894" transform="translate(158.381 86.077)" fill="#674f2f"/>
        <circle id="Ellipse_747" data-name="Ellipse 747" cx="1.894" cy="1.894" r="1.894" transform="translate(158.381 168.711)" fill="#674f2f"/>
        <circle id="Ellipse_748" data-name="Ellipse 748" cx="1.894" cy="1.894" r="1.894" transform="translate(65.418 13.772)" fill="#674f2f"/>
        <circle id="Ellipse_749" data-name="Ellipse 749" cx="1.894" cy="1.894" r="1.894" transform="translate(65.418 96.406)" fill="#674f2f"/>
        <circle id="Ellipse_750" data-name="Ellipse 750" cx="1.894" cy="1.894" r="1.894" transform="translate(65.418 179.04)" fill="#674f2f"/>
        <circle id="Ellipse_751" data-name="Ellipse 751" cx="1.894" cy="1.894" r="1.894" transform="translate(148.052 13.772)" fill="#674f2f"/>
        <circle id="Ellipse_752" data-name="Ellipse 752" cx="1.894" cy="1.894" r="1.894" transform="translate(148.052 96.406)" fill="#674f2f"/>
        <circle id="Ellipse_753" data-name="Ellipse 753" cx="1.894" cy="1.894" r="1.894" transform="translate(148.052 179.04)" fill="#674f2f"/>
        <circle id="Ellipse_754" data-name="Ellipse 754" cx="1.894" cy="1.894" r="1.894" transform="translate(75.746 13.772)" fill="#674f2f"/>
        <circle id="Ellipse_755" data-name="Ellipse 755" cx="1.894" cy="1.894" r="1.894" transform="translate(75.746 96.406)" fill="#674f2f"/>
        <circle id="Ellipse_756" data-name="Ellipse 756" cx="1.894" cy="1.894" r="1.894" transform="translate(75.746 179.04)" fill="#674f2f"/>
        <circle id="Ellipse_757" data-name="Ellipse 757" cx="1.894" cy="1.894" r="1.894" transform="translate(158.381 13.772)" fill="#674f2f"/>
        <circle id="Ellipse_758" data-name="Ellipse 758" cx="1.894" cy="1.894" r="1.894" transform="translate(158.381 96.406)" fill="#674f2f"/>
        <circle id="Ellipse_759" data-name="Ellipse 759" cx="1.894" cy="1.894" r="1.894" transform="translate(158.381 179.04)" fill="#674f2f"/>
        <circle id="Ellipse_760" data-name="Ellipse 760" cx="1.894" cy="1.894" r="1.894" transform="translate(44.76 24.102)" fill="#674f2f"/>
        <circle id="Ellipse_761" data-name="Ellipse 761" cx="1.894" cy="1.894" r="1.894" transform="translate(44.76 106.735)" fill="#674f2f"/>
        <circle id="Ellipse_762" data-name="Ellipse 762" cx="1.894" cy="1.894" r="1.894" transform="translate(44.76 189.369)" fill="#674f2f"/>
        <circle id="Ellipse_763" data-name="Ellipse 763" cx="1.894" cy="1.894" r="1.894" transform="translate(127.393 106.735)" fill="#674f2f"/>
        <circle id="Ellipse_764" data-name="Ellipse 764" cx="1.894" cy="1.894" r="1.894" transform="translate(127.393 189.369)" fill="#674f2f"/>
        <circle id="Ellipse_765" data-name="Ellipse 765" cx="1.894" cy="1.894" r="1.894" transform="translate(55.089 106.735)" fill="#674f2f"/>
        <circle id="Ellipse_766" data-name="Ellipse 766" cx="1.894" cy="1.894" r="1.894" transform="translate(55.089 189.369)" fill="#674f2f"/>
        <circle id="Ellipse_767" data-name="Ellipse 767" cx="1.894" cy="1.894" r="1.894" transform="translate(137.723 106.735)" fill="#674f2f"/>
        <circle id="Ellipse_768" data-name="Ellipse 768" cx="1.894" cy="1.894" r="1.894" transform="translate(137.723 189.369)" fill="#674f2f"/>
        <circle id="Ellipse_769" data-name="Ellipse 769" cx="1.894" cy="1.894" r="1.894" transform="translate(44.76 34.431)" fill="#674f2f"/>
        <circle id="Ellipse_770" data-name="Ellipse 770" cx="1.894" cy="1.894" r="1.894" transform="translate(44.76 117.065)" fill="#674f2f"/>
        <circle id="Ellipse_771" data-name="Ellipse 771" cx="1.894" cy="1.894" r="1.894" transform="translate(44.76 199.698)" fill="#674f2f"/>
        <circle id="Ellipse_772" data-name="Ellipse 772" cx="1.894" cy="1.894" r="1.894" transform="translate(127.393 117.065)" fill="#674f2f"/>
        <circle id="Ellipse_773" data-name="Ellipse 773" cx="1.894" cy="1.894" r="1.894" transform="translate(127.393 199.698)" fill="#674f2f"/>
        <circle id="Ellipse_774" data-name="Ellipse 774" cx="1.894" cy="1.894" r="1.894" transform="translate(55.089 117.065)" fill="#674f2f"/>
        <circle id="Ellipse_775" data-name="Ellipse 775" cx="1.894" cy="1.894" r="1.894" transform="translate(55.089 199.698)" fill="#674f2f"/>
        <circle id="Ellipse_776" data-name="Ellipse 776" cx="1.894" cy="1.894" r="1.894" transform="translate(137.723 117.065)" fill="#674f2f"/>
        <circle id="Ellipse_777" data-name="Ellipse 777" cx="1.894" cy="1.894" r="1.894" transform="translate(137.723 199.698)" fill="#674f2f"/>
        <circle id="Ellipse_778" data-name="Ellipse 778" cx="1.894" cy="1.894" r="1.894" transform="translate(65.418 106.735)" fill="#674f2f"/>
        <circle id="Ellipse_779" data-name="Ellipse 779" cx="1.894" cy="1.894" r="1.894" transform="translate(65.418 189.369)" fill="#674f2f"/>
        <circle id="Ellipse_780" data-name="Ellipse 780" cx="1.894" cy="1.894" r="1.894" transform="translate(148.052 106.735)" fill="#674f2f"/>
        <circle id="Ellipse_781" data-name="Ellipse 781" cx="1.894" cy="1.894" r="1.894" transform="translate(148.052 189.369)" fill="#674f2f"/>
        <circle id="Ellipse_782" data-name="Ellipse 782" cx="1.894" cy="1.894" r="1.894" transform="translate(75.746 106.735)" fill="#674f2f"/>
        <circle id="Ellipse_783" data-name="Ellipse 783" cx="1.894" cy="1.894" r="1.894" transform="translate(75.746 189.369)" fill="#674f2f"/>
        <circle id="Ellipse_784" data-name="Ellipse 784" cx="1.894" cy="1.894" r="1.894" transform="translate(158.381 106.735)" fill="#674f2f"/>
        <circle id="Ellipse_785" data-name="Ellipse 785" cx="1.894" cy="1.894" r="1.894" transform="translate(158.381 189.369)" fill="#674f2f"/>
        <circle id="Ellipse_786" data-name="Ellipse 786" cx="1.894" cy="1.894" r="1.894" transform="translate(65.418 117.065)" fill="#674f2f"/>
        <circle id="Ellipse_787" data-name="Ellipse 787" cx="1.894" cy="1.894" r="1.894" transform="translate(65.418 199.698)" fill="#674f2f"/>
        <circle id="Ellipse_788" data-name="Ellipse 788" cx="1.894" cy="1.894" r="1.894" transform="translate(148.052 117.065)" fill="#674f2f"/>
        <circle id="Ellipse_789" data-name="Ellipse 789" cx="1.894" cy="1.894" r="1.894" transform="translate(148.052 199.698)" fill="#674f2f"/>
        <circle id="Ellipse_790" data-name="Ellipse 790" cx="1.894" cy="1.894" r="1.894" transform="translate(75.746 117.065)" fill="#674f2f"/>
        <circle id="Ellipse_791" data-name="Ellipse 791" cx="1.894" cy="1.894" r="1.894" transform="translate(75.746 199.698)" fill="#674f2f"/>
        <circle id="Ellipse_792" data-name="Ellipse 792" cx="1.894" cy="1.894" r="1.894" transform="translate(158.381 117.065)" fill="#674f2f"/>
        <circle id="Ellipse_793" data-name="Ellipse 793" cx="1.894" cy="1.894" r="1.894" transform="translate(158.381 199.698)" fill="#674f2f"/>
        <circle id="Ellipse_794" data-name="Ellipse 794" cx="1.894" cy="1.894" r="1.894" transform="translate(3.443 44.76)" fill="#674f2f"/>
        <circle id="Ellipse_795" data-name="Ellipse 795" cx="1.894" cy="1.894" r="1.894" transform="translate(3.443 127.394)" fill="#674f2f"/>
        <circle id="Ellipse_796" data-name="Ellipse 796" cx="1.894" cy="1.894" r="1.894" transform="translate(3.443 210.027)" fill="#674f2f"/>
        <circle id="Ellipse_797" data-name="Ellipse 797" cx="1.894" cy="1.894" r="1.894" transform="translate(86.077 127.394)" fill="#674f2f"/>
        <circle id="Ellipse_798" data-name="Ellipse 798" cx="1.894" cy="1.894" r="1.894" transform="translate(86.077 210.027)" fill="#674f2f"/>
        <circle id="Ellipse_799" data-name="Ellipse 799" cx="1.894" cy="1.894" r="1.894" transform="translate(13.772 44.76)" fill="#674f2f"/>
        <circle id="Ellipse_800" data-name="Ellipse 800" cx="1.894" cy="1.894" r="1.894" transform="translate(13.772 127.394)" fill="#674f2f"/>
        <circle id="Ellipse_801" data-name="Ellipse 801" cx="1.894" cy="1.894" r="1.894" transform="translate(13.772 210.027)" fill="#674f2f"/>
        <circle id="Ellipse_802" data-name="Ellipse 802" cx="1.894" cy="1.894" r="1.894" transform="translate(96.406 127.394)" fill="#674f2f"/>
        <circle id="Ellipse_803" data-name="Ellipse 803" cx="1.894" cy="1.894" r="1.894" transform="translate(96.406 210.027)" fill="#674f2f"/>
        <circle id="Ellipse_804" data-name="Ellipse 804" cx="1.894" cy="1.894" r="1.894" transform="translate(3.443 55.089)" fill="#674f2f"/>
        <circle id="Ellipse_805" data-name="Ellipse 805" cx="1.894" cy="1.894" r="1.894" transform="translate(3.443 137.723)" fill="#674f2f"/>
        <circle id="Ellipse_806" data-name="Ellipse 806" cx="1.894" cy="1.894" r="1.894" transform="translate(3.443 220.357)" fill="#674f2f"/>
        <circle id="Ellipse_807" data-name="Ellipse 807" cx="1.894" cy="1.894" r="1.894" transform="translate(86.077 55.089)" fill="#674f2f"/>
        <circle id="Ellipse_808" data-name="Ellipse 808" cx="1.894" cy="1.894" r="1.894" transform="translate(86.077 137.723)" fill="#674f2f"/>
        <circle id="Ellipse_809" data-name="Ellipse 809" cx="1.894" cy="1.894" r="1.894" transform="translate(86.077 220.357)" fill="#674f2f"/>
        <circle id="Ellipse_810" data-name="Ellipse 810" cx="1.894" cy="1.894" r="1.894" transform="translate(13.772 55.089)" fill="#674f2f"/>
        <circle id="Ellipse_811" data-name="Ellipse 811" cx="1.894" cy="1.894" r="1.894" transform="translate(13.772 137.723)" fill="#674f2f"/>
        <circle id="Ellipse_812" data-name="Ellipse 812" cx="1.894" cy="1.894" r="1.894" transform="translate(13.772 220.357)" fill="#674f2f"/>
        <circle id="Ellipse_813" data-name="Ellipse 813" cx="1.894" cy="1.894" r="1.894" transform="translate(96.406 55.089)" fill="#674f2f"/>
        <circle id="Ellipse_814" data-name="Ellipse 814" cx="1.894" cy="1.894" r="1.894" transform="translate(96.406 137.723)" fill="#674f2f"/>
        <circle id="Ellipse_815" data-name="Ellipse 815" cx="1.894" cy="1.894" r="1.894" transform="translate(96.406 220.357)" fill="#674f2f"/>
        <circle id="Ellipse_816" data-name="Ellipse 816" cx="1.894" cy="1.894" r="1.894" transform="translate(24.101 44.76)" fill="#674f2f"/>
        <circle id="Ellipse_817" data-name="Ellipse 817" cx="1.894" cy="1.894" r="1.894" transform="translate(24.101 127.394)" fill="#674f2f"/>
        <circle id="Ellipse_818" data-name="Ellipse 818" cx="1.894" cy="1.894" r="1.894" transform="translate(24.101 210.027)" fill="#674f2f"/>
        <circle id="Ellipse_819" data-name="Ellipse 819" cx="1.894" cy="1.894" r="1.894" transform="translate(106.735 127.394)" fill="#674f2f"/>
        <circle id="Ellipse_820" data-name="Ellipse 820" cx="1.894" cy="1.894" r="1.894" transform="translate(106.735 210.027)" fill="#674f2f"/>
        <circle id="Ellipse_821" data-name="Ellipse 821" cx="1.894" cy="1.894" r="1.894" transform="translate(34.431 44.76)" fill="#674f2f"/>
        <circle id="Ellipse_822" data-name="Ellipse 822" cx="1.894" cy="1.894" r="1.894" transform="translate(34.431 127.394)" fill="#674f2f"/>
        <circle id="Ellipse_823" data-name="Ellipse 823" cx="1.894" cy="1.894" r="1.894" transform="translate(34.431 210.027)" fill="#674f2f"/>
        <circle id="Ellipse_824" data-name="Ellipse 824" cx="1.894" cy="1.894" r="1.894" transform="translate(117.063 127.394)" fill="#674f2f"/>
        <circle id="Ellipse_825" data-name="Ellipse 825" cx="1.894" cy="1.894" r="1.894" transform="translate(117.063 210.027)" fill="#674f2f"/>
        <circle id="Ellipse_826" data-name="Ellipse 826" cx="1.894" cy="1.894" r="1.894" transform="translate(24.101 55.089)" fill="#674f2f"/>
        <circle id="Ellipse_827" data-name="Ellipse 827" cx="1.894" cy="1.894" r="1.894" transform="translate(24.101 137.723)" fill="#674f2f"/>
        <circle id="Ellipse_828" data-name="Ellipse 828" cx="1.894" cy="1.894" r="1.894" transform="translate(24.101 220.357)" fill="#674f2f"/>
        <circle id="Ellipse_829" data-name="Ellipse 829" cx="1.894" cy="1.894" r="1.894" transform="translate(106.735 55.089)" fill="#674f2f"/>
        <circle id="Ellipse_830" data-name="Ellipse 830" cx="1.894" cy="1.894" r="1.894" transform="translate(106.735 137.723)" fill="#674f2f"/>
        <circle id="Ellipse_831" data-name="Ellipse 831" cx="1.894" cy="1.894" r="1.894" transform="translate(106.735 220.357)" fill="#674f2f"/>
        <circle id="Ellipse_832" data-name="Ellipse 832" cx="1.894" cy="1.894" r="1.894" transform="translate(34.431 55.089)" fill="#674f2f"/>
        <circle id="Ellipse_833" data-name="Ellipse 833" cx="1.894" cy="1.894" r="1.894" transform="translate(34.431 137.723)" fill="#674f2f"/>
        <circle id="Ellipse_834" data-name="Ellipse 834" cx="1.894" cy="1.894" r="1.894" transform="translate(34.431 220.357)" fill="#674f2f"/>
        <circle id="Ellipse_835" data-name="Ellipse 835" cx="1.894" cy="1.894" r="1.894" transform="translate(117.063 55.089)" fill="#674f2f"/>
        <circle id="Ellipse_836" data-name="Ellipse 836" cx="1.894" cy="1.894" r="1.894" transform="translate(117.063 137.723)" fill="#674f2f"/>
        <circle id="Ellipse_837" data-name="Ellipse 837" cx="1.894" cy="1.894" r="1.894" transform="translate(117.063 220.357)" fill="#674f2f"/>
        <circle id="Ellipse_838" data-name="Ellipse 838" cx="1.894" cy="1.894" r="1.894" transform="translate(3.443 65.418)" fill="#674f2f"/>
        <circle id="Ellipse_839" data-name="Ellipse 839" cx="1.894" cy="1.894" r="1.894" transform="translate(3.443 148.052)" fill="#674f2f"/>
        <circle id="Ellipse_840" data-name="Ellipse 840" cx="1.894" cy="1.894" r="1.894" transform="translate(3.443 230.686)" fill="#674f2f"/>
        <circle id="Ellipse_841" data-name="Ellipse 841" cx="1.894" cy="1.894" r="1.894" transform="translate(86.077 65.418)" fill="#674f2f"/>
        <circle id="Ellipse_842" data-name="Ellipse 842" cx="1.894" cy="1.894" r="1.894" transform="translate(86.077 148.052)" fill="#674f2f"/>
        <circle id="Ellipse_843" data-name="Ellipse 843" cx="1.894" cy="1.894" r="1.894" transform="translate(86.077 230.686)" fill="#674f2f"/>
        <circle id="Ellipse_844" data-name="Ellipse 844" cx="1.894" cy="1.894" r="1.894" transform="translate(13.772 65.418)" fill="#674f2f"/>
        <circle id="Ellipse_845" data-name="Ellipse 845" cx="1.894" cy="1.894" r="1.894" transform="translate(13.772 148.052)" fill="#674f2f"/>
        <circle id="Ellipse_846" data-name="Ellipse 846" cx="1.894" cy="1.894" r="1.894" transform="translate(13.772 230.686)" fill="#674f2f"/>
        <circle id="Ellipse_847" data-name="Ellipse 847" cx="1.894" cy="1.894" r="1.894" transform="translate(96.406 65.418)" fill="#674f2f"/>
        <circle id="Ellipse_848" data-name="Ellipse 848" cx="1.894" cy="1.894" r="1.894" transform="translate(96.406 148.052)" fill="#674f2f"/>
        <circle id="Ellipse_849" data-name="Ellipse 849" cx="1.894" cy="1.894" r="1.894" transform="translate(96.406 230.686)" fill="#674f2f"/>
        <circle id="Ellipse_850" data-name="Ellipse 850" cx="1.894" cy="1.894" r="1.894" transform="translate(3.443 75.748)" fill="#674f2f"/>
        <circle id="Ellipse_851" data-name="Ellipse 851" cx="1.894" cy="1.894" r="1.894" transform="translate(3.443 158.381)" fill="#674f2f"/>
        <circle id="Ellipse_852" data-name="Ellipse 852" cx="1.894" cy="1.894" r="1.894" transform="translate(3.443 241.015)" fill="#674f2f"/>
        <circle id="Ellipse_853" data-name="Ellipse 853" cx="1.894" cy="1.894" r="1.894" transform="translate(86.077 75.748)" fill="#674f2f"/>
        <circle id="Ellipse_854" data-name="Ellipse 854" cx="1.894" cy="1.894" r="1.894" transform="translate(86.077 158.381)" fill="#674f2f"/>
        <circle id="Ellipse_855" data-name="Ellipse 855" cx="1.894" cy="1.894" r="1.894" transform="translate(86.077 241.015)" fill="#674f2f"/>
        <circle id="Ellipse_856" data-name="Ellipse 856" cx="1.894" cy="1.894" r="1.894" transform="translate(13.772 75.748)" fill="#674f2f"/>
        <circle id="Ellipse_857" data-name="Ellipse 857" cx="1.894" cy="1.894" r="1.894" transform="translate(13.772 158.381)" fill="#674f2f"/>
        <circle id="Ellipse_858" data-name="Ellipse 858" cx="1.894" cy="1.894" r="1.894" transform="translate(13.772 241.015)" fill="#674f2f"/>
        <circle id="Ellipse_859" data-name="Ellipse 859" cx="1.894" cy="1.894" r="1.894" transform="translate(96.406 75.748)" fill="#674f2f"/>
        <circle id="Ellipse_860" data-name="Ellipse 860" cx="1.894" cy="1.894" r="1.894" transform="translate(96.406 158.381)" fill="#674f2f"/>
        <circle id="Ellipse_861" data-name="Ellipse 861" cx="1.894" cy="1.894" r="1.894" transform="translate(96.406 241.015)" fill="#674f2f"/>
        <circle id="Ellipse_862" data-name="Ellipse 862" cx="1.894" cy="1.894" r="1.894" transform="translate(24.101 65.418)" fill="#674f2f"/>
        <circle id="Ellipse_863" data-name="Ellipse 863" cx="1.894" cy="1.894" r="1.894" transform="translate(24.101 148.052)" fill="#674f2f"/>
        <circle id="Ellipse_864" data-name="Ellipse 864" cx="1.894" cy="1.894" r="1.894" transform="translate(24.101 230.686)" fill="#674f2f"/>
        <circle id="Ellipse_865" data-name="Ellipse 865" cx="1.894" cy="1.894" r="1.894" transform="translate(106.735 65.418)" fill="#674f2f"/>
        <circle id="Ellipse_866" data-name="Ellipse 866" cx="1.894" cy="1.894" r="1.894" transform="translate(106.735 148.052)" fill="#674f2f"/>
        <circle id="Ellipse_867" data-name="Ellipse 867" cx="1.894" cy="1.894" r="1.894" transform="translate(106.735 230.686)" fill="#674f2f"/>
        <circle id="Ellipse_868" data-name="Ellipse 868" cx="1.894" cy="1.894" r="1.894" transform="translate(34.431 65.418)" fill="#674f2f"/>
        <circle id="Ellipse_869" data-name="Ellipse 869" cx="1.894" cy="1.894" r="1.894" transform="translate(34.431 148.052)" fill="#674f2f"/>
        <circle id="Ellipse_870" data-name="Ellipse 870" cx="1.894" cy="1.894" r="1.894" transform="translate(34.431 230.686)" fill="#674f2f"/>
        <circle id="Ellipse_871" data-name="Ellipse 871" cx="1.894" cy="1.894" r="1.894" transform="translate(117.063 65.418)" fill="#674f2f"/>
        <circle id="Ellipse_872" data-name="Ellipse 872" cx="1.894" cy="1.894" r="1.894" transform="translate(117.063 148.052)" fill="#674f2f"/>
        <circle id="Ellipse_873" data-name="Ellipse 873" cx="1.894" cy="1.894" r="1.894" transform="translate(117.063 230.686)" fill="#674f2f"/>
        <circle id="Ellipse_874" data-name="Ellipse 874" cx="1.894" cy="1.894" r="1.894" transform="translate(24.101 75.748)" fill="#674f2f"/>
        <circle id="Ellipse_875" data-name="Ellipse 875" cx="1.894" cy="1.894" r="1.894" transform="translate(24.101 158.381)" fill="#674f2f"/>
        <circle id="Ellipse_876" data-name="Ellipse 876" cx="1.894" cy="1.894" r="1.894" transform="translate(24.101 241.015)" fill="#674f2f"/>
        <circle id="Ellipse_877" data-name="Ellipse 877" cx="1.894" cy="1.894" r="1.894" transform="translate(106.735 75.748)" fill="#674f2f"/>
        <circle id="Ellipse_878" data-name="Ellipse 878" cx="1.894" cy="1.894" r="1.894" transform="translate(106.735 158.381)" fill="#674f2f"/>
        <circle id="Ellipse_879" data-name="Ellipse 879" cx="1.894" cy="1.894" r="1.894" transform="translate(106.735 241.015)" fill="#674f2f"/>
        <circle id="Ellipse_880" data-name="Ellipse 880" cx="1.894" cy="1.894" r="1.894" transform="translate(34.431 75.748)" fill="#674f2f"/>
        <circle id="Ellipse_881" data-name="Ellipse 881" cx="1.894" cy="1.894" r="1.894" transform="translate(34.431 158.381)" fill="#674f2f"/>
        <circle id="Ellipse_882" data-name="Ellipse 882" cx="1.894" cy="1.894" r="1.894" transform="translate(34.431 241.015)" fill="#674f2f"/>
        <circle id="Ellipse_883" data-name="Ellipse 883" cx="1.894" cy="1.894" r="1.894" transform="translate(117.063 75.748)" fill="#674f2f"/>
        <circle id="Ellipse_884" data-name="Ellipse 884" cx="1.894" cy="1.894" r="1.894" transform="translate(117.063 158.381)" fill="#674f2f"/>
        <circle id="Ellipse_885" data-name="Ellipse 885" cx="1.894" cy="1.894" r="1.894" transform="translate(117.063 241.015)" fill="#674f2f"/>
        <circle id="Ellipse_886" data-name="Ellipse 886" cx="1.894" cy="1.894" r="1.894" transform="translate(44.76 44.76)" fill="#674f2f"/>
        <circle id="Ellipse_887" data-name="Ellipse 887" cx="1.894" cy="1.894" r="1.894" transform="translate(44.76 127.394)" fill="#674f2f"/>
        <circle id="Ellipse_888" data-name="Ellipse 888" cx="1.894" cy="1.894" r="1.894" transform="translate(44.76 210.027)" fill="#674f2f"/>
        <circle id="Ellipse_889" data-name="Ellipse 889" cx="1.894" cy="1.894" r="1.894" transform="translate(127.393 127.394)" fill="#674f2f"/>
        <circle id="Ellipse_890" data-name="Ellipse 890" cx="1.894" cy="1.894" r="1.894" transform="translate(127.393 210.027)" fill="#674f2f"/>
        <circle id="Ellipse_891" data-name="Ellipse 891" cx="1.894" cy="1.894" r="1.894" transform="translate(55.089 127.394)" fill="#674f2f"/>
        <circle id="Ellipse_892" data-name="Ellipse 892" cx="1.894" cy="1.894" r="1.894" transform="translate(55.089 210.027)" fill="#674f2f"/>
        <circle id="Ellipse_893" data-name="Ellipse 893" cx="1.894" cy="1.894" r="1.894" transform="translate(137.723 127.394)" fill="#674f2f"/>
        <circle id="Ellipse_894" data-name="Ellipse 894" cx="1.894" cy="1.894" r="1.894" transform="translate(137.723 210.027)" fill="#674f2f"/>
        <circle id="Ellipse_895" data-name="Ellipse 895" cx="1.894" cy="1.894" r="1.894" transform="translate(44.76 55.089)" fill="#674f2f"/>
        <circle id="Ellipse_896" data-name="Ellipse 896" cx="1.894" cy="1.894" r="1.894" transform="translate(44.76 137.723)" fill="#674f2f"/>
        <circle id="Ellipse_897" data-name="Ellipse 897" cx="1.894" cy="1.894" r="1.894" transform="translate(44.76 220.357)" fill="#674f2f"/>
        <circle id="Ellipse_898" data-name="Ellipse 898" cx="1.894" cy="1.894" r="1.894" transform="translate(127.393 55.089)" fill="#674f2f"/>
        <circle id="Ellipse_899" data-name="Ellipse 899" cx="1.894" cy="1.894" r="1.894" transform="translate(127.393 137.723)" fill="#674f2f"/>
        <circle id="Ellipse_900" data-name="Ellipse 900" cx="1.894" cy="1.894" r="1.894" transform="translate(127.393 220.357)" fill="#674f2f"/>
        <circle id="Ellipse_901" data-name="Ellipse 901" cx="1.894" cy="1.894" r="1.894" transform="translate(55.089 55.089)" fill="#674f2f"/>
        <circle id="Ellipse_902" data-name="Ellipse 902" cx="1.894" cy="1.894" r="1.894" transform="translate(55.089 137.723)" fill="#674f2f"/>
        <circle id="Ellipse_903" data-name="Ellipse 903" cx="1.894" cy="1.894" r="1.894" transform="translate(55.089 220.357)" fill="#674f2f"/>
        <circle id="Ellipse_904" data-name="Ellipse 904" cx="1.894" cy="1.894" r="1.894" transform="translate(137.723 55.089)" fill="#674f2f"/>
        <circle id="Ellipse_905" data-name="Ellipse 905" cx="1.894" cy="1.894" r="1.894" transform="translate(137.723 137.723)" fill="#674f2f"/>
        <circle id="Ellipse_906" data-name="Ellipse 906" cx="1.894" cy="1.894" r="1.894" transform="translate(137.723 220.357)" fill="#674f2f"/>
        <circle id="Ellipse_907" data-name="Ellipse 907" cx="1.894" cy="1.894" r="1.894" transform="translate(65.418 127.394)" fill="#674f2f"/>
        <circle id="Ellipse_908" data-name="Ellipse 908" cx="1.894" cy="1.894" r="1.894" transform="translate(65.418 210.027)" fill="#674f2f"/>
        <circle id="Ellipse_909" data-name="Ellipse 909" cx="1.894" cy="1.894" r="1.894" transform="translate(148.052 127.394)" fill="#674f2f"/>
        <circle id="Ellipse_910" data-name="Ellipse 910" cx="1.894" cy="1.894" r="1.894" transform="translate(148.052 210.027)" fill="#674f2f"/>
        <circle id="Ellipse_911" data-name="Ellipse 911" cx="1.894" cy="1.894" r="1.894" transform="translate(75.746 127.394)" fill="#674f2f"/>
        <circle id="Ellipse_912" data-name="Ellipse 912" cx="1.894" cy="1.894" r="1.894" transform="translate(75.746 210.027)" fill="#674f2f"/>
        <circle id="Ellipse_913" data-name="Ellipse 913" cx="1.894" cy="1.894" r="1.894" transform="translate(158.381 127.394)" fill="#674f2f"/>
        <circle id="Ellipse_914" data-name="Ellipse 914" cx="1.894" cy="1.894" r="1.894" transform="translate(158.381 210.027)" fill="#674f2f"/>
        <circle id="Ellipse_915" data-name="Ellipse 915" cx="1.894" cy="1.894" r="1.894" transform="translate(65.418 55.089)" fill="#674f2f"/>
        <circle id="Ellipse_916" data-name="Ellipse 916" cx="1.894" cy="1.894" r="1.894" transform="translate(65.418 137.723)" fill="#674f2f"/>
        <circle id="Ellipse_917" data-name="Ellipse 917" cx="1.894" cy="1.894" r="1.894" transform="translate(65.418 220.357)" fill="#674f2f"/>
        <circle id="Ellipse_918" data-name="Ellipse 918" cx="1.894" cy="1.894" r="1.894" transform="translate(148.052 55.089)" fill="#674f2f"/>
        <circle id="Ellipse_919" data-name="Ellipse 919" cx="1.894" cy="1.894" r="1.894" transform="translate(148.052 137.723)" fill="#674f2f"/>
        <circle id="Ellipse_920" data-name="Ellipse 920" cx="1.894" cy="1.894" r="1.894" transform="translate(148.052 220.357)" fill="#674f2f"/>
        <circle id="Ellipse_921" data-name="Ellipse 921" cx="1.894" cy="1.894" r="1.894" transform="translate(75.746 55.089)" fill="#674f2f"/>
        <circle id="Ellipse_922" data-name="Ellipse 922" cx="1.894" cy="1.894" r="1.894" transform="translate(75.746 137.723)" fill="#674f2f"/>
        <circle id="Ellipse_923" data-name="Ellipse 923" cx="1.894" cy="1.894" r="1.894" transform="translate(75.746 220.357)" fill="#674f2f"/>
        <circle id="Ellipse_924" data-name="Ellipse 924" cx="1.894" cy="1.894" r="1.894" transform="translate(158.381 55.089)" fill="#674f2f"/>
        <circle id="Ellipse_925" data-name="Ellipse 925" cx="1.894" cy="1.894" r="1.894" transform="translate(158.381 137.723)" fill="#674f2f"/>
        <circle id="Ellipse_926" data-name="Ellipse 926" cx="1.894" cy="1.894" r="1.894" transform="translate(158.381 220.357)" fill="#674f2f"/>
        <circle id="Ellipse_927" data-name="Ellipse 927" cx="1.894" cy="1.894" r="1.894" transform="translate(44.76 65.418)" fill="#674f2f"/>
        <circle id="Ellipse_928" data-name="Ellipse 928" cx="1.894" cy="1.894" r="1.894" transform="translate(44.76 148.052)" fill="#674f2f"/>
        <circle id="Ellipse_929" data-name="Ellipse 929" cx="1.894" cy="1.894" r="1.894" transform="translate(44.76 230.686)" fill="#674f2f"/>
        <circle id="Ellipse_930" data-name="Ellipse 930" cx="1.894" cy="1.894" r="1.894" transform="translate(127.393 65.418)" fill="#674f2f"/>
        <circle id="Ellipse_931" data-name="Ellipse 931" cx="1.894" cy="1.894" r="1.894" transform="translate(127.393 148.052)" fill="#674f2f"/>
        <circle id="Ellipse_932" data-name="Ellipse 932" cx="1.894" cy="1.894" r="1.894" transform="translate(127.393 230.686)" fill="#674f2f"/>
        <circle id="Ellipse_933" data-name="Ellipse 933" cx="1.894" cy="1.894" r="1.894" transform="translate(55.089 65.418)" fill="#674f2f"/>
        <circle id="Ellipse_934" data-name="Ellipse 934" cx="1.894" cy="1.894" r="1.894" transform="translate(55.089 148.052)" fill="#674f2f"/>
        <circle id="Ellipse_935" data-name="Ellipse 935" cx="1.894" cy="1.894" r="1.894" transform="translate(55.089 230.686)" fill="#674f2f"/>
        <circle id="Ellipse_936" data-name="Ellipse 936" cx="1.894" cy="1.894" r="1.894" transform="translate(137.723 65.418)" fill="#674f2f"/>
        <circle id="Ellipse_937" data-name="Ellipse 937" cx="1.894" cy="1.894" r="1.894" transform="translate(137.723 148.052)" fill="#674f2f"/>
        <circle id="Ellipse_938" data-name="Ellipse 938" cx="1.894" cy="1.894" r="1.894" transform="translate(137.723 230.686)" fill="#674f2f"/>
        <circle id="Ellipse_939" data-name="Ellipse 939" cx="1.894" cy="1.894" r="1.894" transform="translate(44.76 75.748)" fill="#674f2f"/>
        <circle id="Ellipse_940" data-name="Ellipse 940" cx="1.894" cy="1.894" r="1.894" transform="translate(44.76 158.381)" fill="#674f2f"/>
        <circle id="Ellipse_941" data-name="Ellipse 941" cx="1.894" cy="1.894" r="1.894" transform="translate(44.76 241.015)" fill="#674f2f"/>
        <circle id="Ellipse_942" data-name="Ellipse 942" cx="1.894" cy="1.894" r="1.894" transform="translate(127.393 75.748)" fill="#674f2f"/>
        <circle id="Ellipse_943" data-name="Ellipse 943" cx="1.894" cy="1.894" r="1.894" transform="translate(127.393 158.381)" fill="#674f2f"/>
        <circle id="Ellipse_944" data-name="Ellipse 944" cx="1.894" cy="1.894" r="1.894" transform="translate(127.393 241.015)" fill="#674f2f"/>
        <circle id="Ellipse_945" data-name="Ellipse 945" cx="1.894" cy="1.894" r="1.894" transform="translate(55.089 75.748)" fill="#674f2f"/>
        <circle id="Ellipse_946" data-name="Ellipse 946" cx="1.894" cy="1.894" r="1.894" transform="translate(55.089 158.381)" fill="#674f2f"/>
        <circle id="Ellipse_947" data-name="Ellipse 947" cx="1.894" cy="1.894" r="1.894" transform="translate(55.089 241.015)" fill="#674f2f"/>
        <circle id="Ellipse_948" data-name="Ellipse 948" cx="1.894" cy="1.894" r="1.894" transform="translate(137.723 75.748)" fill="#674f2f"/>
        <circle id="Ellipse_949" data-name="Ellipse 949" cx="1.894" cy="1.894" r="1.894" transform="translate(137.723 158.381)" fill="#674f2f"/>
        <circle id="Ellipse_950" data-name="Ellipse 950" cx="1.894" cy="1.894" r="1.894" transform="translate(137.723 241.015)" fill="#674f2f"/>
        <circle id="Ellipse_951" data-name="Ellipse 951" cx="1.894" cy="1.894" r="1.894" transform="translate(65.418 65.418)" fill="#674f2f"/>
        <circle id="Ellipse_952" data-name="Ellipse 952" cx="1.894" cy="1.894" r="1.894" transform="translate(65.418 148.052)" fill="#674f2f"/>
        <circle id="Ellipse_953" data-name="Ellipse 953" cx="1.894" cy="1.894" r="1.894" transform="translate(65.418 230.686)" fill="#674f2f"/>
        <circle id="Ellipse_954" data-name="Ellipse 954" cx="1.894" cy="1.894" r="1.894" transform="translate(148.052 65.418)" fill="#674f2f"/>
        <circle id="Ellipse_955" data-name="Ellipse 955" cx="1.894" cy="1.894" r="1.894" transform="translate(148.052 148.052)" fill="#674f2f"/>
        <circle id="Ellipse_956" data-name="Ellipse 956" cx="1.894" cy="1.894" r="1.894" transform="translate(148.052 230.686)" fill="#674f2f"/>
        <circle id="Ellipse_957" data-name="Ellipse 957" cx="1.894" cy="1.894" r="1.894" transform="translate(75.746 65.418)" fill="#674f2f"/>
        <circle id="Ellipse_958" data-name="Ellipse 958" cx="1.894" cy="1.894" r="1.894" transform="translate(75.746 148.052)" fill="#674f2f"/>
        <circle id="Ellipse_959" data-name="Ellipse 959" cx="1.894" cy="1.894" r="1.894" transform="translate(75.746 230.686)" fill="#674f2f"/>
        <circle id="Ellipse_960" data-name="Ellipse 960" cx="1.894" cy="1.894" r="1.894" transform="translate(158.381 65.418)" fill="#674f2f"/>
        <circle id="Ellipse_961" data-name="Ellipse 961" cx="1.894" cy="1.894" r="1.894" transform="translate(158.381 148.052)" fill="#674f2f"/>
        <circle id="Ellipse_962" data-name="Ellipse 962" cx="1.894" cy="1.894" r="1.894" transform="translate(158.381 230.686)" fill="#674f2f"/>
        <circle id="Ellipse_963" data-name="Ellipse 963" cx="1.894" cy="1.894" r="1.894" transform="translate(65.418 75.748)" fill="#674f2f"/>
        <circle id="Ellipse_964" data-name="Ellipse 964" cx="1.894" cy="1.894" r="1.894" transform="translate(65.418 158.381)" fill="#674f2f"/>
        <circle id="Ellipse_965" data-name="Ellipse 965" cx="1.894" cy="1.894" r="1.894" transform="translate(65.418 241.015)" fill="#674f2f"/>
        <circle id="Ellipse_966" data-name="Ellipse 966" cx="1.894" cy="1.894" r="1.894" transform="translate(148.052 75.748)" fill="#674f2f"/>
        <circle id="Ellipse_967" data-name="Ellipse 967" cx="1.894" cy="1.894" r="1.894" transform="translate(148.052 158.381)" fill="#674f2f"/>
        <circle id="Ellipse_968" data-name="Ellipse 968" cx="1.894" cy="1.894" r="1.894" transform="translate(148.052 241.015)" fill="#674f2f"/>
        <circle id="Ellipse_969" data-name="Ellipse 969" cx="1.894" cy="1.894" r="1.894" transform="translate(75.746 75.748)" fill="#674f2f"/>
        <circle id="Ellipse_970" data-name="Ellipse 970" cx="1.894" cy="1.894" r="1.894" transform="translate(75.746 158.381)" fill="#674f2f"/>
        <circle id="Ellipse_971" data-name="Ellipse 971" cx="1.894" cy="1.894" r="1.894" transform="translate(75.746 241.015)" fill="#674f2f"/>
        <circle id="Ellipse_972" data-name="Ellipse 972" cx="1.894" cy="1.894" r="1.894" transform="translate(158.381 75.748)" fill="#674f2f"/>
        <circle id="Ellipse_973" data-name="Ellipse 973" cx="1.894" cy="1.894" r="1.894" transform="translate(158.381 158.381)" fill="#674f2f"/>
        <circle id="Ellipse_974" data-name="Ellipse 974" cx="1.894" cy="1.894" r="1.894" transform="translate(158.381 241.015)" fill="#674f2f"/>
        <circle id="Ellipse_975" data-name="Ellipse 975" cx="1.894" cy="1.894" r="1.894" transform="translate(168.71 3.443)" fill="#674f2f"/>
        <circle id="Ellipse_976" data-name="Ellipse 976" cx="1.894" cy="1.894" r="1.894" transform="translate(168.71 86.077)" fill="#674f2f"/>
        <circle id="Ellipse_977" data-name="Ellipse 977" cx="1.894" cy="1.894" r="1.894" transform="translate(168.71 168.711)" fill="#674f2f"/>
        <circle id="Ellipse_978" data-name="Ellipse 978" cx="1.894" cy="1.894" r="1.894" transform="translate(179.039 3.443)" fill="#674f2f"/>
        <circle id="Ellipse_979" data-name="Ellipse 979" cx="1.894" cy="1.894" r="1.894" transform="translate(179.039 86.077)" fill="#674f2f"/>
        <circle id="Ellipse_980" data-name="Ellipse 980" cx="1.894" cy="1.894" r="1.894" transform="translate(179.039 168.711)" fill="#674f2f"/>
        <circle id="Ellipse_981" data-name="Ellipse 981" cx="1.894" cy="1.894" r="1.894" transform="translate(168.71 13.772)" fill="#674f2f"/>
        <circle id="Ellipse_982" data-name="Ellipse 982" cx="1.894" cy="1.894" r="1.894" transform="translate(168.71 96.406)" fill="#674f2f"/>
        <circle id="Ellipse_983" data-name="Ellipse 983" cx="1.894" cy="1.894" r="1.894" transform="translate(168.71 179.04)" fill="#674f2f"/>
        <circle id="Ellipse_984" data-name="Ellipse 984" cx="1.894" cy="1.894" r="1.894" transform="translate(179.039 13.772)" fill="#674f2f"/>
        <circle id="Ellipse_985" data-name="Ellipse 985" cx="1.894" cy="1.894" r="1.894" transform="translate(179.039 96.406)" fill="#674f2f"/>
        <circle id="Ellipse_986" data-name="Ellipse 986" cx="1.894" cy="1.894" r="1.894" transform="translate(179.039 179.04)" fill="#674f2f"/>
        <circle id="Ellipse_987" data-name="Ellipse 987" cx="1.894" cy="1.894" r="1.894" transform="translate(189.369 3.443)" fill="#674f2f"/>
        <circle id="Ellipse_988" data-name="Ellipse 988" cx="1.894" cy="1.894" r="1.894" transform="translate(189.369 86.077)" fill="#674f2f"/>
        <circle id="Ellipse_989" data-name="Ellipse 989" cx="1.894" cy="1.894" r="1.894" transform="translate(189.369 168.711)" fill="#674f2f"/>
        <circle id="Ellipse_990" data-name="Ellipse 990" cx="1.894" cy="1.894" r="1.894" transform="translate(199.698 3.443)" fill="#674f2f"/>
        <circle id="Ellipse_991" data-name="Ellipse 991" cx="1.894" cy="1.894" r="1.894" transform="translate(199.698 86.077)" fill="#674f2f"/>
        <circle id="Ellipse_992" data-name="Ellipse 992" cx="1.894" cy="1.894" r="1.894" transform="translate(199.698 168.711)" fill="#674f2f"/>
        <circle id="Ellipse_993" data-name="Ellipse 993" cx="1.894" cy="1.894" r="1.894" transform="translate(189.369 13.772)" fill="#674f2f"/>
        <circle id="Ellipse_994" data-name="Ellipse 994" cx="1.894" cy="1.894" r="1.894" transform="translate(189.369 96.406)" fill="#674f2f"/>
        <circle id="Ellipse_995" data-name="Ellipse 995" cx="1.894" cy="1.894" r="1.894" transform="translate(189.369 179.04)" fill="#674f2f"/>
        <circle id="Ellipse_996" data-name="Ellipse 996" cx="1.894" cy="1.894" r="1.894" transform="translate(199.698 13.772)" fill="#674f2f"/>
        <circle id="Ellipse_997" data-name="Ellipse 997" cx="1.894" cy="1.894" r="1.894" transform="translate(199.698 96.406)" fill="#674f2f"/>
        <circle id="Ellipse_998" data-name="Ellipse 998" cx="1.894" cy="1.894" r="1.894" transform="translate(199.698 179.04)" fill="#674f2f"/>
        <circle id="Ellipse_999" data-name="Ellipse 999" cx="1.894" cy="1.894" r="1.894" transform="translate(168.71 106.735)" fill="#674f2f"/>
        <circle id="Ellipse_1000" data-name="Ellipse 1000" cx="1.894" cy="1.894" r="1.894" transform="translate(168.71 189.369)" fill="#674f2f"/>
        <circle id="Ellipse_1001" data-name="Ellipse 1001" cx="1.894" cy="1.894" r="1.894" transform="translate(179.039 106.735)" fill="#674f2f"/>
        <circle id="Ellipse_1002" data-name="Ellipse 1002" cx="1.894" cy="1.894" r="1.894" transform="translate(179.039 189.369)" fill="#674f2f"/>
        <circle id="Ellipse_1003" data-name="Ellipse 1003" cx="1.894" cy="1.894" r="1.894" transform="translate(168.71 117.065)" fill="#674f2f"/>
        <circle id="Ellipse_1004" data-name="Ellipse 1004" cx="1.894" cy="1.894" r="1.894" transform="translate(168.71 199.698)" fill="#674f2f"/>
        <circle id="Ellipse_1005" data-name="Ellipse 1005" cx="1.894" cy="1.894" r="1.894" transform="translate(179.039 117.065)" fill="#674f2f"/>
        <circle id="Ellipse_1006" data-name="Ellipse 1006" cx="1.894" cy="1.894" r="1.894" transform="translate(179.039 199.698)" fill="#674f2f"/>
        <circle id="Ellipse_1007" data-name="Ellipse 1007" cx="1.894" cy="1.894" r="1.894" transform="translate(189.369 106.735)" fill="#674f2f"/>
        <circle id="Ellipse_1008" data-name="Ellipse 1008" cx="1.894" cy="1.894" r="1.894" transform="translate(189.369 189.369)" fill="#674f2f"/>
        <circle id="Ellipse_1009" data-name="Ellipse 1009" cx="1.894" cy="1.894" r="1.894" transform="translate(199.698 24.102)" fill="#674f2f"/>
        <circle id="Ellipse_1010" data-name="Ellipse 1010" cx="1.894" cy="1.894" r="1.894" transform="translate(199.698 106.735)" fill="#674f2f"/>
        <circle id="Ellipse_1011" data-name="Ellipse 1011" cx="1.894" cy="1.894" r="1.894" transform="translate(199.698 189.369)" fill="#674f2f"/>
        <circle id="Ellipse_1012" data-name="Ellipse 1012" cx="1.894" cy="1.894" r="1.894" transform="translate(189.369 117.065)" fill="#674f2f"/>
        <circle id="Ellipse_1013" data-name="Ellipse 1013" cx="1.894" cy="1.894" r="1.894" transform="translate(189.369 199.698)" fill="#674f2f"/>
        <circle id="Ellipse_1014" data-name="Ellipse 1014" cx="1.894" cy="1.894" r="1.894" transform="translate(199.698 34.431)" fill="#674f2f"/>
        <circle id="Ellipse_1015" data-name="Ellipse 1015" cx="1.894" cy="1.894" r="1.894" transform="translate(199.698 117.065)" fill="#674f2f"/>
        <circle id="Ellipse_1016" data-name="Ellipse 1016" cx="1.894" cy="1.894" r="1.894" transform="translate(199.698 199.698)" fill="#674f2f"/>
        <circle id="Ellipse_1017" data-name="Ellipse 1017" cx="1.894" cy="1.894" r="1.894" transform="translate(210.027 3.443)" fill="#674f2f"/>
        <circle id="Ellipse_1018" data-name="Ellipse 1018" cx="1.894" cy="1.894" r="1.894" transform="translate(210.027 86.077)" fill="#674f2f"/>
        <circle id="Ellipse_1019" data-name="Ellipse 1019" cx="1.894" cy="1.894" r="1.894" transform="translate(210.027 168.711)" fill="#674f2f"/>
        <circle id="Ellipse_1020" data-name="Ellipse 1020" cx="1.894" cy="1.894" r="1.894" transform="translate(220.356 3.443)" fill="#674f2f"/>
        <circle id="Ellipse_1021" data-name="Ellipse 1021" cx="1.894" cy="1.894" r="1.894" transform="translate(220.356 86.077)" fill="#674f2f"/>
        <circle id="Ellipse_1022" data-name="Ellipse 1022" cx="1.894" cy="1.894" r="1.894" transform="translate(220.356 168.711)" fill="#674f2f"/>
        <circle id="Ellipse_1023" data-name="Ellipse 1023" cx="1.894" cy="1.894" r="1.894" transform="translate(210.027 13.772)" fill="#674f2f"/>
        <circle id="Ellipse_1024" data-name="Ellipse 1024" cx="1.894" cy="1.894" r="1.894" transform="translate(210.027 96.406)" fill="#674f2f"/>
        <circle id="Ellipse_1025" data-name="Ellipse 1025" cx="1.894" cy="1.894" r="1.894" transform="translate(210.027 179.04)" fill="#674f2f"/>
        <circle id="Ellipse_1026" data-name="Ellipse 1026" cx="1.894" cy="1.894" r="1.894" transform="translate(220.356 13.772)" fill="#674f2f"/>
        <circle id="Ellipse_1027" data-name="Ellipse 1027" cx="1.894" cy="1.894" r="1.894" transform="translate(220.356 96.406)" fill="#674f2f"/>
        <circle id="Ellipse_1028" data-name="Ellipse 1028" cx="1.894" cy="1.894" r="1.894" transform="translate(220.356 179.04)" fill="#674f2f"/>
        <circle id="Ellipse_1029" data-name="Ellipse 1029" cx="1.894" cy="1.894" r="1.894" transform="translate(230.686 3.443)" fill="#674f2f"/>
        <circle id="Ellipse_1030" data-name="Ellipse 1030" cx="1.894" cy="1.894" r="1.894" transform="translate(230.686 86.077)" fill="#674f2f"/>
        <circle id="Ellipse_1031" data-name="Ellipse 1031" cx="1.894" cy="1.894" r="1.894" transform="translate(230.686 168.711)" fill="#674f2f"/>
        <circle id="Ellipse_1032" data-name="Ellipse 1032" cx="1.894" cy="1.894" r="1.894" transform="translate(241.015 3.443)" fill="#674f2f"/>
        <circle id="Ellipse_1033" data-name="Ellipse 1033" cx="1.894" cy="1.894" r="1.894" transform="translate(241.015 86.077)" fill="#674f2f"/>
        <circle id="Ellipse_1034" data-name="Ellipse 1034" cx="1.894" cy="1.894" r="1.894" transform="translate(241.015 168.711)" fill="#674f2f"/>
        <circle id="Ellipse_1035" data-name="Ellipse 1035" cx="1.894" cy="1.894" r="1.894" transform="translate(230.686 13.772)" fill="#674f2f"/>
        <circle id="Ellipse_1036" data-name="Ellipse 1036" cx="1.894" cy="1.894" r="1.894" transform="translate(230.686 96.406)" fill="#674f2f"/>
        <circle id="Ellipse_1037" data-name="Ellipse 1037" cx="1.894" cy="1.894" r="1.894" transform="translate(230.686 179.04)" fill="#674f2f"/>
        <circle id="Ellipse_1038" data-name="Ellipse 1038" cx="1.894" cy="1.894" r="1.894" transform="translate(241.015 13.772)" fill="#674f2f"/>
        <circle id="Ellipse_1039" data-name="Ellipse 1039" cx="1.894" cy="1.894" r="1.894" transform="translate(241.015 96.406)" fill="#674f2f"/>
        <circle id="Ellipse_1040" data-name="Ellipse 1040" cx="1.894" cy="1.894" r="1.894" transform="translate(241.015 179.04)" fill="#674f2f"/>
        <circle id="Ellipse_1041" data-name="Ellipse 1041" cx="1.894" cy="1.894" r="1.894" transform="translate(210.027 24.102)" fill="#674f2f"/>
        <circle id="Ellipse_1042" data-name="Ellipse 1042" cx="1.894" cy="1.894" r="1.894" transform="translate(210.027 106.735)" fill="#674f2f"/>
        <circle id="Ellipse_1043" data-name="Ellipse 1043" cx="1.894" cy="1.894" r="1.894" transform="translate(210.027 189.369)" fill="#674f2f"/>
        <circle id="Ellipse_1044" data-name="Ellipse 1044" cx="1.894" cy="1.894" r="1.894" transform="translate(220.356 24.102)" fill="#674f2f"/>
        <circle id="Ellipse_1045" data-name="Ellipse 1045" cx="1.894" cy="1.894" r="1.894" transform="translate(220.356 106.735)" fill="#674f2f"/>
        <circle id="Ellipse_1046" data-name="Ellipse 1046" cx="1.894" cy="1.894" r="1.894" transform="translate(220.356 189.369)" fill="#674f2f"/>
        <circle id="Ellipse_1047" data-name="Ellipse 1047" cx="1.894" cy="1.894" r="1.894" transform="translate(210.027 34.431)" fill="#674f2f"/>
        <circle id="Ellipse_1048" data-name="Ellipse 1048" cx="1.894" cy="1.894" r="1.894" transform="translate(210.027 117.065)" fill="#674f2f"/>
        <circle id="Ellipse_1049" data-name="Ellipse 1049" cx="1.894" cy="1.894" r="1.894" transform="translate(210.027 199.698)" fill="#674f2f"/>
        <circle id="Ellipse_1050" data-name="Ellipse 1050" cx="1.894" cy="1.894" r="1.894" transform="translate(220.356 34.431)" fill="#674f2f"/>
        <circle id="Ellipse_1051" data-name="Ellipse 1051" cx="1.894" cy="1.894" r="1.894" transform="translate(220.356 117.065)" fill="#674f2f"/>
        <circle id="Ellipse_1052" data-name="Ellipse 1052" cx="1.894" cy="1.894" r="1.894" transform="translate(220.356 199.698)" fill="#674f2f"/>
        <circle id="Ellipse_1053" data-name="Ellipse 1053" cx="1.894" cy="1.894" r="1.894" transform="translate(230.686 24.102)" fill="#674f2f"/>
        <circle id="Ellipse_1054" data-name="Ellipse 1054" cx="1.894" cy="1.894" r="1.894" transform="translate(230.686 106.735)" fill="#674f2f"/>
        <circle id="Ellipse_1055" data-name="Ellipse 1055" cx="1.894" cy="1.894" r="1.894" transform="translate(230.686 189.369)" fill="#674f2f"/>
        <circle id="Ellipse_1056" data-name="Ellipse 1056" cx="1.894" cy="1.894" r="1.894" transform="translate(241.015 24.102)" fill="#674f2f"/>
        <circle id="Ellipse_1057" data-name="Ellipse 1057" cx="1.894" cy="1.894" r="1.894" transform="translate(241.015 106.735)" fill="#674f2f"/>
        <circle id="Ellipse_1058" data-name="Ellipse 1058" cx="1.894" cy="1.894" r="1.894" transform="translate(241.015 189.369)" fill="#674f2f"/>
        <circle id="Ellipse_1059" data-name="Ellipse 1059" cx="1.894" cy="1.894" r="1.894" transform="translate(230.686 34.431)" fill="#674f2f"/>
        <circle id="Ellipse_1060" data-name="Ellipse 1060" cx="1.894" cy="1.894" r="1.894" transform="translate(230.686 117.065)" fill="#674f2f"/>
        <circle id="Ellipse_1061" data-name="Ellipse 1061" cx="1.894" cy="1.894" r="1.894" transform="translate(230.686 199.698)" fill="#674f2f"/>
        <circle id="Ellipse_1062" data-name="Ellipse 1062" cx="1.894" cy="1.894" r="1.894" transform="translate(241.015 34.431)" fill="#674f2f"/>
        <circle id="Ellipse_1063" data-name="Ellipse 1063" cx="1.894" cy="1.894" r="1.894" transform="translate(241.015 117.065)" fill="#674f2f"/>
        <circle id="Ellipse_1064" data-name="Ellipse 1064" cx="1.894" cy="1.894" r="1.894" transform="translate(241.015 199.698)" fill="#674f2f"/>
        <circle id="Ellipse_1065" data-name="Ellipse 1065" cx="1.894" cy="1.894" r="1.894" transform="translate(168.71 127.394)" fill="#674f2f"/>
        <circle id="Ellipse_1066" data-name="Ellipse 1066" cx="1.894" cy="1.894" r="1.894" transform="translate(168.71 210.027)" fill="#674f2f"/>
        <circle id="Ellipse_1067" data-name="Ellipse 1067" cx="1.894" cy="1.894" r="1.894" transform="translate(179.039 127.394)" fill="#674f2f"/>
        <circle id="Ellipse_1068" data-name="Ellipse 1068" cx="1.894" cy="1.894" r="1.894" transform="translate(179.039 210.027)" fill="#674f2f"/>
        <circle id="Ellipse_1069" data-name="Ellipse 1069" cx="1.894" cy="1.894" r="1.894" transform="translate(168.71 55.089)" fill="#674f2f"/>
        <circle id="Ellipse_1070" data-name="Ellipse 1070" cx="1.894" cy="1.894" r="1.894" transform="translate(168.71 137.723)" fill="#674f2f"/>
        <circle id="Ellipse_1071" data-name="Ellipse 1071" cx="1.894" cy="1.894" r="1.894" transform="translate(168.71 220.357)" fill="#674f2f"/>
        <circle id="Ellipse_1072" data-name="Ellipse 1072" cx="1.894" cy="1.894" r="1.894" transform="translate(179.039 55.089)" fill="#674f2f"/>
        <circle id="Ellipse_1073" data-name="Ellipse 1073" cx="1.894" cy="1.894" r="1.894" transform="translate(179.039 137.723)" fill="#674f2f"/>
        <circle id="Ellipse_1074" data-name="Ellipse 1074" cx="1.894" cy="1.894" r="1.894" transform="translate(179.039 220.357)" fill="#674f2f"/>
        <circle id="Ellipse_1075" data-name="Ellipse 1075" cx="1.894" cy="1.894" r="1.894" transform="translate(189.369 127.394)" fill="#674f2f"/>
        <circle id="Ellipse_1076" data-name="Ellipse 1076" cx="1.894" cy="1.894" r="1.894" transform="translate(189.369 210.027)" fill="#674f2f"/>
        <circle id="Ellipse_1077" data-name="Ellipse 1077" cx="1.894" cy="1.894" r="1.894" transform="translate(199.698 44.76)" fill="#674f2f"/>
        <circle id="Ellipse_1078" data-name="Ellipse 1078" cx="1.894" cy="1.894" r="1.894" transform="translate(199.698 127.394)" fill="#674f2f"/>
        <circle id="Ellipse_1079" data-name="Ellipse 1079" cx="1.894" cy="1.894" r="1.894" transform="translate(199.698 210.027)" fill="#674f2f"/>
        <circle id="Ellipse_1080" data-name="Ellipse 1080" cx="1.894" cy="1.894" r="1.894" transform="translate(189.369 55.089)" fill="#674f2f"/>
        <circle id="Ellipse_1081" data-name="Ellipse 1081" cx="1.894" cy="1.894" r="1.894" transform="translate(189.369 137.723)" fill="#674f2f"/>
        <circle id="Ellipse_1082" data-name="Ellipse 1082" cx="1.894" cy="1.894" r="1.894" transform="translate(189.369 220.357)" fill="#674f2f"/>
        <circle id="Ellipse_1083" data-name="Ellipse 1083" cx="1.894" cy="1.894" r="1.894" transform="translate(199.698 55.089)" fill="#674f2f"/>
        <circle id="Ellipse_1084" data-name="Ellipse 1084" cx="1.894" cy="1.894" r="1.894" transform="translate(199.698 137.723)" fill="#674f2f"/>
        <circle id="Ellipse_1085" data-name="Ellipse 1085" cx="1.894" cy="1.894" r="1.894" transform="translate(199.698 220.357)" fill="#674f2f"/>
        <circle id="Ellipse_1086" data-name="Ellipse 1086" cx="1.894" cy="1.894" r="1.894" transform="translate(168.71 65.418)" fill="#674f2f"/>
        <circle id="Ellipse_1087" data-name="Ellipse 1087" cx="1.894" cy="1.894" r="1.894" transform="translate(168.71 148.052)" fill="#674f2f"/>
        <circle id="Ellipse_1088" data-name="Ellipse 1088" cx="1.894" cy="1.894" r="1.894" transform="translate(168.71 230.686)" fill="#674f2f"/>
        <circle id="Ellipse_1089" data-name="Ellipse 1089" cx="1.894" cy="1.894" r="1.894" transform="translate(179.039 65.418)" fill="#674f2f"/>
        <circle id="Ellipse_1090" data-name="Ellipse 1090" cx="1.894" cy="1.894" r="1.894" transform="translate(179.039 148.052)" fill="#674f2f"/>
        <circle id="Ellipse_1091" data-name="Ellipse 1091" cx="1.894" cy="1.894" r="1.894" transform="translate(179.039 230.686)" fill="#674f2f"/>
        <circle id="Ellipse_1092" data-name="Ellipse 1092" cx="1.894" cy="1.894" r="1.894" transform="translate(168.71 75.748)" fill="#674f2f"/>
        <circle id="Ellipse_1093" data-name="Ellipse 1093" cx="1.894" cy="1.894" r="1.894" transform="translate(168.71 158.381)" fill="#674f2f"/>
        <circle id="Ellipse_1094" data-name="Ellipse 1094" cx="1.894" cy="1.894" r="1.894" transform="translate(168.71 241.015)" fill="#674f2f"/>
        <circle id="Ellipse_1095" data-name="Ellipse 1095" cx="1.894" cy="1.894" r="1.894" transform="translate(179.039 75.748)" fill="#674f2f"/>
        <circle id="Ellipse_1096" data-name="Ellipse 1096" cx="1.894" cy="1.894" r="1.894" transform="translate(179.039 158.381)" fill="#674f2f"/>
        <circle id="Ellipse_1097" data-name="Ellipse 1097" cx="1.894" cy="1.894" r="1.894" transform="translate(179.039 241.015)" fill="#674f2f"/>
        <circle id="Ellipse_1098" data-name="Ellipse 1098" cx="1.894" cy="1.894" r="1.894" transform="translate(189.369 65.418)" fill="#674f2f"/>
        <circle id="Ellipse_1099" data-name="Ellipse 1099" cx="1.894" cy="1.894" r="1.894" transform="translate(189.369 148.052)" fill="#674f2f"/>
        <circle id="Ellipse_1100" data-name="Ellipse 1100" cx="1.894" cy="1.894" r="1.894" transform="translate(189.369 230.686)" fill="#674f2f"/>
        <circle id="Ellipse_1101" data-name="Ellipse 1101" cx="1.894" cy="1.894" r="1.894" transform="translate(199.698 65.418)" fill="#674f2f"/>
        <circle id="Ellipse_1102" data-name="Ellipse 1102" cx="1.894" cy="1.894" r="1.894" transform="translate(199.698 148.052)" fill="#674f2f"/>
        <circle id="Ellipse_1103" data-name="Ellipse 1103" cx="1.894" cy="1.894" r="1.894" transform="translate(199.698 230.686)" fill="#674f2f"/>
        <circle id="Ellipse_1104" data-name="Ellipse 1104" cx="1.894" cy="1.894" r="1.894" transform="translate(189.369 75.748)" fill="#674f2f"/>
        <circle id="Ellipse_1105" data-name="Ellipse 1105" cx="1.894" cy="1.894" r="1.894" transform="translate(189.369 158.381)" fill="#674f2f"/>
        <circle id="Ellipse_1106" data-name="Ellipse 1106" cx="1.894" cy="1.894" r="1.894" transform="translate(189.369 241.015)" fill="#674f2f"/>
        <circle id="Ellipse_1107" data-name="Ellipse 1107" cx="1.894" cy="1.894" r="1.894" transform="translate(199.698 75.748)" fill="#674f2f"/>
        <circle id="Ellipse_1108" data-name="Ellipse 1108" cx="1.894" cy="1.894" r="1.894" transform="translate(199.698 158.381)" fill="#674f2f"/>
        <circle id="Ellipse_1109" data-name="Ellipse 1109" cx="1.894" cy="1.894" r="1.894" transform="translate(199.698 241.015)" fill="#674f2f"/>
        <circle id="Ellipse_1110" data-name="Ellipse 1110" cx="1.894" cy="1.894" r="1.894" transform="translate(210.027 44.76)" fill="#674f2f"/>
        <circle id="Ellipse_1111" data-name="Ellipse 1111" cx="1.894" cy="1.894" r="1.894" transform="translate(210.027 127.394)" fill="#674f2f"/>
        <circle id="Ellipse_1112" data-name="Ellipse 1112" cx="1.894" cy="1.894" r="1.894" transform="translate(210.027 210.027)" fill="#674f2f"/>
        <circle id="Ellipse_1113" data-name="Ellipse 1113" cx="1.894" cy="1.894" r="1.894" transform="translate(220.356 44.76)" fill="#674f2f"/>
        <circle id="Ellipse_1114" data-name="Ellipse 1114" cx="1.894" cy="1.894" r="1.894" transform="translate(220.356 127.394)" fill="#674f2f"/>
        <circle id="Ellipse_1115" data-name="Ellipse 1115" cx="1.894" cy="1.894" r="1.894" transform="translate(220.356 210.027)" fill="#674f2f"/>
        <circle id="Ellipse_1116" data-name="Ellipse 1116" cx="1.894" cy="1.894" r="1.894" transform="translate(210.027 55.089)" fill="#674f2f"/>
        <circle id="Ellipse_1117" data-name="Ellipse 1117" cx="1.894" cy="1.894" r="1.894" transform="translate(210.027 137.723)" fill="#674f2f"/>
        <circle id="Ellipse_1118" data-name="Ellipse 1118" cx="1.894" cy="1.894" r="1.894" transform="translate(210.027 220.357)" fill="#674f2f"/>
        <circle id="Ellipse_1119" data-name="Ellipse 1119" cx="1.894" cy="1.894" r="1.894" transform="translate(220.356 55.089)" fill="#674f2f"/>
        <circle id="Ellipse_1120" data-name="Ellipse 1120" cx="1.894" cy="1.894" r="1.894" transform="translate(220.356 137.723)" fill="#674f2f"/>
        <circle id="Ellipse_1121" data-name="Ellipse 1121" cx="1.894" cy="1.894" r="1.894" transform="translate(220.356 220.357)" fill="#674f2f"/>
        <circle id="Ellipse_1122" data-name="Ellipse 1122" cx="1.894" cy="1.894" r="1.894" transform="translate(230.686 44.76)" fill="#674f2f"/>
        <circle id="Ellipse_1123" data-name="Ellipse 1123" cx="1.894" cy="1.894" r="1.894" transform="translate(230.686 127.394)" fill="#674f2f"/>
        <circle id="Ellipse_1124" data-name="Ellipse 1124" cx="1.894" cy="1.894" r="1.894" transform="translate(230.686 210.027)" fill="#674f2f"/>
        <circle id="Ellipse_1125" data-name="Ellipse 1125" cx="1.894" cy="1.894" r="1.894" transform="translate(241.015 44.76)" fill="#674f2f"/>
        <circle id="Ellipse_1126" data-name="Ellipse 1126" cx="1.894" cy="1.894" r="1.894" transform="translate(241.015 127.394)" fill="#674f2f"/>
        <circle id="Ellipse_1127" data-name="Ellipse 1127" cx="1.894" cy="1.894" r="1.894" transform="translate(241.015 210.027)" fill="#674f2f"/>
        <circle id="Ellipse_1128" data-name="Ellipse 1128" cx="1.894" cy="1.894" r="1.894" transform="translate(230.686 55.089)" fill="#674f2f"/>
        <circle id="Ellipse_1129" data-name="Ellipse 1129" cx="1.894" cy="1.894" r="1.894" transform="translate(230.686 137.723)" fill="#674f2f"/>
        <circle id="Ellipse_1130" data-name="Ellipse 1130" cx="1.894" cy="1.894" r="1.894" transform="translate(230.686 220.357)" fill="#674f2f"/>
        <circle id="Ellipse_1131" data-name="Ellipse 1131" cx="1.894" cy="1.894" r="1.894" transform="translate(241.015 55.089)" fill="#674f2f"/>
        <circle id="Ellipse_1132" data-name="Ellipse 1132" cx="1.894" cy="1.894" r="1.894" transform="translate(241.015 137.723)" fill="#674f2f"/>
        <circle id="Ellipse_1133" data-name="Ellipse 1133" cx="1.894" cy="1.894" r="1.894" transform="translate(241.015 220.357)" fill="#674f2f"/>
        <circle id="Ellipse_1134" data-name="Ellipse 1134" cx="1.894" cy="1.894" r="1.894" transform="translate(210.027 65.418)" fill="#674f2f"/>
        <circle id="Ellipse_1135" data-name="Ellipse 1135" cx="1.894" cy="1.894" r="1.894" transform="translate(210.027 148.052)" fill="#674f2f"/>
        <circle id="Ellipse_1136" data-name="Ellipse 1136" cx="1.894" cy="1.894" r="1.894" transform="translate(210.027 230.686)" fill="#674f2f"/>
        <circle id="Ellipse_1137" data-name="Ellipse 1137" cx="1.894" cy="1.894" r="1.894" transform="translate(220.356 65.418)" fill="#674f2f"/>
        <circle id="Ellipse_1138" data-name="Ellipse 1138" cx="1.894" cy="1.894" r="1.894" transform="translate(220.356 148.052)" fill="#674f2f"/>
        <circle id="Ellipse_1139" data-name="Ellipse 1139" cx="1.894" cy="1.894" r="1.894" transform="translate(220.356 230.686)" fill="#674f2f"/>
        <circle id="Ellipse_1140" data-name="Ellipse 1140" cx="1.894" cy="1.894" r="1.894" transform="translate(210.027 75.748)" fill="#674f2f"/>
        <circle id="Ellipse_1141" data-name="Ellipse 1141" cx="1.894" cy="1.894" r="1.894" transform="translate(210.027 158.381)" fill="#674f2f"/>
        <circle id="Ellipse_1142" data-name="Ellipse 1142" cx="1.894" cy="1.894" r="1.894" transform="translate(210.027 241.015)" fill="#674f2f"/>
        <circle id="Ellipse_1143" data-name="Ellipse 1143" cx="1.894" cy="1.894" r="1.894" transform="translate(220.356 75.748)" fill="#674f2f"/>
        <circle id="Ellipse_1144" data-name="Ellipse 1144" cx="1.894" cy="1.894" r="1.894" transform="translate(220.356 158.381)" fill="#674f2f"/>
        <circle id="Ellipse_1145" data-name="Ellipse 1145" cx="1.894" cy="1.894" r="1.894" transform="translate(220.356 241.015)" fill="#674f2f"/>
        <circle id="Ellipse_1146" data-name="Ellipse 1146" cx="1.894" cy="1.894" r="1.894" transform="translate(230.686 65.418)" fill="#674f2f"/>
        <circle id="Ellipse_1147" data-name="Ellipse 1147" cx="1.894" cy="1.894" r="1.894" transform="translate(230.686 148.052)" fill="#674f2f"/>
        <circle id="Ellipse_1148" data-name="Ellipse 1148" cx="1.894" cy="1.894" r="1.894" transform="translate(230.686 230.686)" fill="#674f2f"/>
        <circle id="Ellipse_1149" data-name="Ellipse 1149" cx="1.894" cy="1.894" r="1.894" transform="translate(241.015 65.418)" fill="#674f2f"/>
        <circle id="Ellipse_1150" data-name="Ellipse 1150" cx="1.894" cy="1.894" r="1.894" transform="translate(241.015 148.052)" fill="#674f2f"/>
        <circle id="Ellipse_1151" data-name="Ellipse 1151" cx="1.894" cy="1.894" r="1.894" transform="translate(241.015 230.686)" fill="#674f2f"/>
        <circle id="Ellipse_1152" data-name="Ellipse 1152" cx="1.894" cy="1.894" r="1.894" transform="translate(230.686 75.748)" fill="#674f2f"/>
        <circle id="Ellipse_1153" data-name="Ellipse 1153" cx="1.894" cy="1.894" r="1.894" transform="translate(230.686 158.381)" fill="#674f2f"/>
        <circle id="Ellipse_1154" data-name="Ellipse 1154" cx="1.894" cy="1.894" r="1.894" transform="translate(230.686 241.015)" fill="#674f2f"/>
        <circle id="Ellipse_1155" data-name="Ellipse 1155" cx="1.894" cy="1.894" r="1.894" transform="translate(241.015 75.748)" fill="#674f2f"/>
        <circle id="Ellipse_1156" data-name="Ellipse 1156" cx="1.894" cy="1.894" r="1.894" transform="translate(241.015 158.381)" fill="#674f2f"/>
        <circle id="Ellipse_1157" data-name="Ellipse 1157" cx="1.894" cy="1.894" r="1.894" transform="translate(241.015 241.015)" fill="#674f2f"/>
      </g>
    </g>
    <path id="Harman_Kardon" data-name="Harman Kardon" d="M28.8,7.1a25.241,25.241,0,0,1,1.839-3.486,3.4,3.4,0,0,1,1.476-1.433,3.585,3.585,0,0,1,.941-.257q.257,0,.257.064t-.278.214A3.908,3.908,0,0,0,32.07,3.32a29.888,29.888,0,0,0-1.689,3.015,33.175,33.175,0,0,0-1.8,4.3,6.2,6.2,0,0,0,1.647-.128q.364-.128.428-.043.086.086-.192.278a4.084,4.084,0,0,1-2.074.577q-.021.043-.342,1.026a18.131,18.131,0,0,0-1.069,4.641,1.632,1.632,0,0,0,.257,1.048.8.8,0,0,0,.577.3,1.183,1.183,0,0,0,.663-.257A10.933,10.933,0,0,0,31.151,14.2q.171-.364.321-.3.171.064,0,.449a19.572,19.572,0,0,1-1.326,2.481,8.9,8.9,0,0,1-1.176,1.454,2.578,2.578,0,0,1-1.754.834,1.386,1.386,0,0,1-1.369-.813,1.6,1.6,0,0,1-.192-.706v-.663q.021-.364.086-.92a9.047,9.047,0,0,1,.3-1.411l.385-1.283q.15-.449.428-1.2t.3-.813q-.92,0-7.25-.278A19.44,19.44,0,0,1,15.8,18.011a12.594,12.594,0,0,1-3.186,2.545A10.46,10.46,0,0,1,7.477,21.9a10.647,10.647,0,0,1-2.523-.342A6.9,6.9,0,0,1,2.323,20.3,5.024,5.024,0,0,1,.548,17.8,6.219,6.219,0,0,1,.527,14.29,3.985,3.985,0,0,1,1.66,12.451a2.627,2.627,0,0,1,1.476-.877q.214,0,.257.064.043.043-.043.128a.5.5,0,0,1-.171.107,3.53,3.53,0,0,0-1.326,1.219,4.792,4.792,0,0,0-.9,2.887,4.074,4.074,0,0,0,2.481,3.828,7.751,7.751,0,0,0,3.507.748,7.579,7.579,0,0,0,1.647-.171Q15.839,18.76,18.79,11a2.5,2.5,0,0,0-1.091.257,2.19,2.19,0,0,1-.684.235.149.149,0,0,1-.171-.128q0-.364.513-.684a2.123,2.123,0,0,1,.9-.385h.834q1.369-3.422,3.122-6.929-.556.064-1.583.15t-1.668.15q-.642.064-1.583.214a9.434,9.434,0,0,0-1.561.364,10.817,10.817,0,0,0-1.39.556,5.241,5.241,0,0,0-1.262.834,6.413,6.413,0,0,0-1.732,2.823,4.848,4.848,0,0,0-.214,1.454,2.44,2.44,0,0,0,.556,1.5,1.766,1.766,0,0,0,1.476.727,2.7,2.7,0,0,0,2.588-2.1A4.815,4.815,0,0,0,16.2,8.666a.973.973,0,0,0-.15-.6q-.128-.214.086-.257.15-.021.257.171a2.658,2.658,0,0,1-.171,2.588,3.648,3.648,0,0,1-1.967,1.775,3.54,3.54,0,0,1-1.2.214,3.019,3.019,0,0,1-1.2-.257,3.18,3.18,0,0,1-1.668-1.668,3.09,3.09,0,0,1-.342-1.347,6.383,6.383,0,0,1,.192-1.454,5.235,5.235,0,0,1,.813-1.689,4.582,4.582,0,0,1,1.5-1.369,11.567,11.567,0,0,1,1.8-.877,9.8,9.8,0,0,1,2.117-.513q1.24-.171,2.139-.257.92-.086,2.2-.15t1.9-.128a7.925,7.925,0,0,1,.706-.984,1.888,1.888,0,0,1,.834-.684,1.932,1.932,0,0,1,.535-.107q.791,0,.791.684,0,.663-.877,1.112a3.631,3.631,0,0,1-1.647.449A40.982,40.982,0,0,0,21.206,7.3q-1.048,2.844-1.112,2.994,1.6,0,4.127.192,2.545.171,3.122.171Q27.772,9.414,28.8,7.1ZM24.307,1.737q-.257,0-1.069,1.048,1.39-.214,1.369-.748a.278.278,0,0,0-.235-.278A.087.087,0,0,0,24.307,1.737ZM37.692,12.451A8.152,8.152,0,0,0,36.6,14.2a9.22,9.22,0,0,0-.855,2.032,5.968,5.968,0,0,0-.128,1.091q0,.406.321.406.406,0,1.005-.748a15.212,15.212,0,0,0,1.732-2.844q.086-.192.192-.214.171-.064.171.128a.673.673,0,0,1-.064.257q-1.967,3.978-3.315,3.978a1.156,1.156,0,0,1-1.005-.6,1.653,1.653,0,0,1-.192-.855,5.022,5.022,0,0,1,.214-1.3q-1.711,2.759-2.951,2.759a.992.992,0,0,1-.62-.214,1.747,1.747,0,0,1-.642-1.54,6.667,6.667,0,0,1,1.818-4.256A4.721,4.721,0,0,1,34.8,10.719a3.028,3.028,0,0,1,.77-.107,2.27,2.27,0,0,1,1.668.684.418.418,0,0,1,.128.449.3.3,0,0,1-.364.171.986.986,0,0,0-1.026-.77q-.92,0-2.267,1.454a11.7,11.7,0,0,0-1.433,2.01,4.753,4.753,0,0,0-.834,2.224q0,.834.535.834,1.283,0,3.357-3.935a4.616,4.616,0,0,1,.684-1.069.921.921,0,0,1,.706-.3,3.348,3.348,0,0,1,.428.064A1.408,1.408,0,0,0,37.692,12.451Zm3.862-2.78a2.332,2.332,0,0,1-1.219,1.818q.428.021,1.133.021.727,0,1.818-.107a.8.8,0,0,1,.043.342,2.261,2.261,0,0,1-.257.834q-.257.535-.47.941-.192.385-.385.748-.171.342-.406.855-.214.513-.364.941-.535,1.625.171,1.625.9,0,2.652-3.571.15-.278.235-.214a.193.193,0,0,1,.107.171,3.322,3.322,0,0,1-.278.663q-.278.556-.6,1.155a8.021,8.021,0,0,1-1.005,1.39,2.185,2.185,0,0,1-1.561.984q-.834,0-1.155-1.005a1.946,1.946,0,0,1-.064-.577,3.18,3.18,0,0,1,.235-1.026,12.4,12.4,0,0,1,.791-1.561q.535-.92.6-1.069a.916.916,0,0,0,.064-.321q0-.663-1.711-.706l-.257.684a13.756,13.756,0,0,1-2.588,4.726q-.214.192-.214-.128a.345.345,0,0,1,.043-.15,16.376,16.376,0,0,0,2.074-3.742,20.33,20.33,0,0,0,1.219-4.106q.128-.663.6-.663t.684.6A1.422,1.422,0,0,1,41.554,9.671Zm12.783,1.561q-2.609,4.641-2.609,5.988,0,.6.406.6.513,0,1.176-.77a12.366,12.366,0,0,0,1.754-2.93q.128-.3.257-.235a.193.193,0,0,1,.128.171,1.876,1.876,0,0,1-.214.535l-.342.684q-.128.257-.577.984a6.281,6.281,0,0,1-.748,1.069,4.341,4.341,0,0,1-.791.684,1.889,1.889,0,0,1-1.091.321,1.241,1.241,0,0,1-1.026-.6,1.294,1.294,0,0,1-.192-.748,4.046,4.046,0,0,1,.214-1.176,11.543,11.543,0,0,1,1.176-2.224,1.3,1.3,0,0,0,.235-.6q0-.235-.364-.235-.342,0-1.262.855a14.924,14.924,0,0,0-1.946,2.31,7.329,7.329,0,0,0-1.2,2.331.573.573,0,0,1-.535-.3,1.083,1.083,0,0,1-.171-.513A10.053,10.053,0,0,1,47.793,14.1a4.1,4.1,0,0,0,.406-1.091q.021-.3-.086-.3a.415.415,0,0,0-.257.064,6.009,6.009,0,0,0-1.176.941,15.049,15.049,0,0,0-2.951,4.17.526.526,0,0,1-.278.3,3.357,3.357,0,0,1-.62.064,1.6,1.6,0,0,0-.62.107q.385-.748,1.347-2.8a21.425,21.425,0,0,1,2.31-4.234.954.954,0,0,1,.706-.257,3.347,3.347,0,0,1,.428.064,1.408,1.408,0,0,0,.535.021q-.791.428-2.588,4.02a16.74,16.74,0,0,1,1.433-1.625q.449-.385.663-.577t.321-.3q.128-.107.342-.3.235-.214.342-.3.128-.107.342-.278a1.505,1.505,0,0,1,.321-.214,3.139,3.139,0,0,0,.321-.192.744.744,0,0,1,.3-.128,1.2,1.2,0,0,0,.278-.043q.171-.064.235.021a.57.57,0,0,1,.428.535,5.582,5.582,0,0,1-.727,1.647q-.727,1.326-.941,1.754a15.068,15.068,0,0,1,1.8-1.925,10.91,10.91,0,0,1,2.01-1.411,4.271,4.271,0,0,1,1.711-.642A.476.476,0,0,1,54.337,11.232Zm7.225,1.219A8.152,8.152,0,0,0,60.471,14.2a9.22,9.22,0,0,0-.855,2.032,5.969,5.969,0,0,0-.128,1.091q0,.406.321.406.406,0,1.005-.748a15.212,15.212,0,0,0,1.732-2.844q.086-.192.192-.214.171-.064.171.128a.673.673,0,0,1-.064.257q-1.967,3.978-3.315,3.978a1.156,1.156,0,0,1-1.005-.6,1.653,1.653,0,0,1-.192-.855,5.022,5.022,0,0,1,.214-1.3q-1.711,2.759-2.951,2.759a.992.992,0,0,1-.62-.214,1.747,1.747,0,0,1-.642-1.54,6.667,6.667,0,0,1,1.818-4.256,4.721,4.721,0,0,1,2.523-1.561,3.028,3.028,0,0,1,.77-.107,2.27,2.27,0,0,1,1.668.684.418.418,0,0,1,.128.449.3.3,0,0,1-.364.171.986.986,0,0,0-1.026-.77q-.92,0-2.267,1.454a11.7,11.7,0,0,0-1.433,2.01,4.753,4.753,0,0,0-.834,2.224q0,.834.535.834,1.283,0,3.357-3.935a4.616,4.616,0,0,1,.684-1.069.921.921,0,0,1,.706-.3,3.348,3.348,0,0,1,.428.064A1.408,1.408,0,0,0,61.562,12.451ZM69,11.232q-2.63,4.619-2.63,6.031,0,.556.406.556,1.091,0,2.93-3.7.128-.3.257-.235a.193.193,0,0,1,.128.171.541.541,0,0,1-.086.257,15.074,15.074,0,0,1-1.925,3.165,2.156,2.156,0,0,1-1.561.855,1.334,1.334,0,0,1-1.176-.6,1.2,1.2,0,0,1-.214-.748,4.046,4.046,0,0,1,.214-1.176,11.543,11.543,0,0,1,1.176-2.224,1.3,1.3,0,0,0,.235-.6q0-.235-.364-.235T65,13.713a14.843,14.843,0,0,0-2.973,4.234.614.614,0,0,1-.3.278,3.357,3.357,0,0,1-.62.064,1.6,1.6,0,0,0-.62.107q.342-.684,1.347-2.8a22.86,22.86,0,0,1,2.352-4.277.954.954,0,0,1,.706-.257,3.348,3.348,0,0,1,.428.064,1.408,1.408,0,0,0,.535.021q-.791.428-2.588,4.02A17.208,17.208,0,0,1,65.082,13.2a10.155,10.155,0,0,1,1.989-1.369,4.139,4.139,0,0,1,1.689-.642A.628.628,0,0,1,69,11.232ZM93.241,15q-.128-.727-.171-1.2t-.043-.962q0-.513.171-.577h.064a6.77,6.77,0,0,0,2.374-.877,38.359,38.359,0,0,0,3.935-2.352,34.523,34.523,0,0,0,4.619-3.807,27.909,27.909,0,0,0,3.978-4.7q.278-.406.47-.406a.185.185,0,0,1,.128.064.25.25,0,0,1,.086.214A.892.892,0,0,1,108.7.8a29.477,29.477,0,0,1-6.865,7.613q-4.427,3.55-7.4,4.3a.579.579,0,0,0-.043.278q0,.192.043.663a13.38,13.38,0,0,0,.406,1.818,20.618,20.618,0,0,0,.877,2.459q1.454,3.336,3.828,3.336a6.11,6.11,0,0,0,2.609-.577,3.661,3.661,0,0,0,1.818-1.668q.128-.3.321-.3t-.043.47a5.212,5.212,0,0,1-2.032,2.074,5.4,5.4,0,0,1-2.951.92,4.431,4.431,0,0,1-2.866-1.112A10.02,10.02,0,0,1,93.241,15ZM96.107,2.849a7.924,7.924,0,0,1,.706-.984,1.888,1.888,0,0,1,.834-.684,2.43,2.43,0,0,1,.684-.107.563.563,0,0,1,.513.278,1.053,1.053,0,0,1,.171.556.974.974,0,0,1-.406.642,3.74,3.74,0,0,1-2.16.77,43.635,43.635,0,0,0-2.8,7.079,29.292,29.292,0,0,1-1.561,3.785,21.648,21.648,0,0,1-2.074,3.486A11.044,11.044,0,0,1,82.934,21.8a11.859,11.859,0,0,1-1.668.107,9.209,9.209,0,0,1-1.967-.235q-3.914-.9-5.047-3.849a4.961,4.961,0,0,1-.342-1.775,7.568,7.568,0,0,1,.235-1.839,3.434,3.434,0,0,1,1.069-1.668,2.861,2.861,0,0,1,1.369-.813q.278-.043.278.128a.193.193,0,0,1-.128.171,4.058,4.058,0,0,0-1.24,1.112A4.389,4.389,0,0,0,74.551,16a3.889,3.889,0,0,0,1.069,2.844A5.652,5.652,0,0,0,78.7,20.556a11.02,11.02,0,0,0,2.01.235,5.079,5.079,0,0,0,1.39-.171,11.854,11.854,0,0,0,3.272-1.283,12.887,12.887,0,0,0,2.566-1.818,14.818,14.818,0,0,0,1.989-2.331,21.834,21.834,0,0,0,1.5-2.4q.556-1.026,1.946-4.17t2.438-5.261q-.321.043-1.839.171a23.777,23.777,0,0,0-4.363.684,6.4,6.4,0,0,0-4.17,3.122,4.546,4.546,0,0,0-.6,2.16,3.558,3.558,0,0,0,.171,1.091,1.836,1.836,0,0,0,1.861,1.433,2.5,2.5,0,0,0,2.459-1.818,4.188,4.188,0,0,0,.342-1.454,5.227,5.227,0,0,0-.043-.813q-.043-.235.064-.235a.505.505,0,0,1,.3.278,2.7,2.7,0,0,1,.192,1.069,3.131,3.131,0,0,1-.406,1.39,3.26,3.26,0,0,1-1.8,1.775,3.889,3.889,0,0,1-1.326.257,2.8,2.8,0,0,1-1.925-.77,3.408,3.408,0,0,1-1.155-2.673,4.7,4.7,0,0,1,2.181-3.914,11.8,11.8,0,0,1,5.817-1.9Q92.728,3.084,94.2,3,95.7,2.892,96.107,2.849Zm2.245-.941q0-.235-.192-.235a.783.783,0,0,0-.492.214,8.492,8.492,0,0,0-.834.9,2.915,2.915,0,0,0,.941-.257Q98.352,2.25,98.352,1.908Zm7.838,10.543A8.152,8.152,0,0,0,105.1,14.2a9.22,9.22,0,0,0-.855,2.032,5.969,5.969,0,0,0-.128,1.091q0,.406.321.406.406,0,1.005-.748a15.211,15.211,0,0,0,1.732-2.844q.086-.192.192-.214.171-.064.171.128a.673.673,0,0,1-.064.257q-1.967,3.978-3.315,3.978a1.156,1.156,0,0,1-1.005-.6,1.653,1.653,0,0,1-.192-.855,5.022,5.022,0,0,1,.214-1.3q-1.711,2.759-2.951,2.759a.992.992,0,0,1-.62-.214,1.747,1.747,0,0,1-.642-1.54,6.667,6.667,0,0,1,1.818-4.256,4.721,4.721,0,0,1,2.523-1.561,3.028,3.028,0,0,1,.77-.107,2.27,2.27,0,0,1,1.668.684.418.418,0,0,1,.128.449.3.3,0,0,1-.364.171.986.986,0,0,0-1.026-.77q-.92,0-2.267,1.454a11.7,11.7,0,0,0-1.433,2.01,4.753,4.753,0,0,0-.834,2.224q0,.834.535.834,1.283,0,3.357-3.935a4.616,4.616,0,0,1,.684-1.069.921.921,0,0,1,.706-.3,3.348,3.348,0,0,1,.428.064A1.408,1.408,0,0,0,106.191,12.451Zm3.863-2.78a2.332,2.332,0,0,1-1.219,1.818q.428.021,1.133.021.727,0,1.818-.107a.8.8,0,0,1,.043.342,2.261,2.261,0,0,1-.257.834q-.257.535-.47.941-.192.385-.385.748-.171.342-.406.855-.214.513-.364.941-.535,1.625.171,1.625.9,0,2.652-3.571.15-.278.235-.214a.193.193,0,0,1,.107.171,3.321,3.321,0,0,1-.278.663q-.278.556-.6,1.155a8.021,8.021,0,0,1-1.005,1.39,2.185,2.185,0,0,1-1.561.984q-.834,0-1.155-1.005a1.946,1.946,0,0,1-.064-.577,3.18,3.18,0,0,1,.235-1.026,12.4,12.4,0,0,1,.791-1.561q.535-.92.6-1.069a.916.916,0,0,0,.064-.321q0-.663-1.711-.706l-.257.684a13.756,13.756,0,0,1-2.588,4.726q-.214.192-.214-.128a.345.345,0,0,1,.043-.15,16.375,16.375,0,0,0,2.074-3.742,20.329,20.329,0,0,0,1.219-4.106q.128-.663.6-.663t.684.6A1.422,1.422,0,0,1,110.054,9.671Zm7.18,7.335q0,.684.556.684,1.005,0,2.673-3.357a1.96,1.96,0,0,0,.107-.257.333.333,0,0,1,.171-.171q.128-.043.171.064a.411.411,0,0,1-.043.3q-1.711,3.978-3.464,3.978a1.055,1.055,0,0,1-.92-.513,1.811,1.811,0,0,1-.342-1.005,3.878,3.878,0,0,1,.107-.941q-1.24,2.053-2.139,2.331a1.325,1.325,0,0,1-.513.107,1.781,1.781,0,0,1-.47-.064q-1.048-.278-1.048-1.668a5.462,5.462,0,0,1,.47-2.074,8.814,8.814,0,0,1,1.369-2.2,4.294,4.294,0,0,1,2.117-1.411,3.317,3.317,0,0,1,1.048-.15,3.033,3.033,0,0,1,1.369.385q1.454-2.737,2.481-5.068a2.137,2.137,0,0,1,.577-.9.957.957,0,0,1,.535-.214h.3a3.725,3.725,0,0,1,.406.064,2.633,2.633,0,0,0,.556.021A29.043,29.043,0,0,0,120.7,9.307a55.56,55.56,0,0,0-3.251,6.672A3.29,3.29,0,0,0,117.234,17.006Zm1.048-5.624a1.07,1.07,0,0,0-.791-.278,2.6,2.6,0,0,0-1.39.748,9.89,9.89,0,0,0-2.374,2.951,4.29,4.29,0,0,0-.62,1.9,1.463,1.463,0,0,0,.128.62.482.482,0,0,0,.449.278q.727,0,1.8-1.5A46.925,46.925,0,0,0,118.282,11.382Zm6.184-.62q1.561,0,1.561,1.967a4.639,4.639,0,0,1-.47,1.925,7.612,7.612,0,0,1-1.8,2.523,1.031,1.031,0,0,0,1.005.535,1.467,1.467,0,0,0,1.091-.577,6.059,6.059,0,0,0,.92-1.155l.406-.748q.128-.235.321-.663.214-.449.257-.535a.152.152,0,0,1,.15-.107q.214-.021.214.15a.345.345,0,0,1-.043.15l-.128.3q-.128.3-.192.428l-.235.47a3.988,3.988,0,0,1-.278.513q-.107.192-.321.513a3.465,3.465,0,0,1-.364.513,4.71,4.71,0,0,1-.385.428,2.392,2.392,0,0,1-.449.364,1.971,1.971,0,0,1-1.005.321,1.732,1.732,0,0,1-1.369-.556,3.139,3.139,0,0,1-1.818.727q-1.561,0-1.561-1.967a4.639,4.639,0,0,1,.47-1.925,7.236,7.236,0,0,1,1.8-2.545A3.454,3.454,0,0,1,124.466,10.762Zm.235.663a2.183,2.183,0,0,0-1.369.77,7.075,7.075,0,0,0-1.411,2.1,6.14,6.14,0,0,0-.748,2.523q0,.984.748.984a1.927,1.927,0,0,0,1.2-.577,1.8,1.8,0,0,1-.342-1.048q.043-.92.748-.92a.572.572,0,0,1,.449.192.54.54,0,0,1,.192.364,1.326,1.326,0,0,1-.043.321,12.06,12.06,0,0,0,.834-1.518,4.836,4.836,0,0,0,.535-2.139Q125.492,11.425,124.7,11.425Zm9.494-.192q-2.63,4.619-2.63,6.031,0,.556.406.556,1.091,0,2.93-3.7.128-.3.257-.235a.193.193,0,0,1,.128.171.541.541,0,0,1-.086.257,15.073,15.073,0,0,1-1.925,3.165,2.156,2.156,0,0,1-1.561.855,1.334,1.334,0,0,1-1.176-.6,1.2,1.2,0,0,1-.214-.748,4.046,4.046,0,0,1,.214-1.176,11.543,11.543,0,0,1,1.176-2.224,1.3,1.3,0,0,0,.235-.6q0-.235-.364-.235t-1.39.962a14.843,14.843,0,0,0-2.973,4.234.614.614,0,0,1-.3.278,3.357,3.357,0,0,1-.62.064,1.6,1.6,0,0,0-.62.107q.342-.684,1.347-2.8a22.859,22.859,0,0,1,2.352-4.277.954.954,0,0,1,.706-.257,3.348,3.348,0,0,1,.428.064,1.408,1.408,0,0,0,.535.021q-.791.428-2.588,4.02a17.208,17.208,0,0,1,1.818-1.967,10.155,10.155,0,0,1,1.989-1.369,4.139,4.139,0,0,1,1.689-.642A.628.628,0,0,1,134.2,11.232Z" transform="translate(1055.714 487.779)" fill="#b90a00"/>
  </g>
</svg>
